<svg width="356" height="272" viewBox="0 0 356 272" fill="none" xmlns="http://www.w3.org/2000/svg">
<path d="M324.42 155.313H194.781V260.388H324.42V155.313Z" fill="#FBCFE8"/>
<path fill-rule="evenodd" clip-rule="evenodd" d="M232.223 203.506H211.924V247.637H232.223V203.506ZM311.851 205.6H291.552V247.637H311.851V205.6ZM285.31 193.825H265.009V247.637H285.31V193.825ZM258.766 178.757H238.465V247.637H258.766V178.757ZM306.14 198.677H297V203.676H306.14V198.677ZM226.253 196.735H217.113V201.731H226.253V196.735ZM279.729 187.379H270.59V192.378H279.729V187.379ZM252.857 171.965H243.72V176.963H252.857V171.965Z" fill="#FDF2F8"/>
<path fill-rule="evenodd" clip-rule="evenodd" d="M270.479 239.672L310.369 196.492C310.938 195.875 311.894 195.846 312.501 196.425C313.106 197.007 313.136 197.981 312.567 198.597L271.435 243.122C271.127 243.454 270.691 243.631 270.245 243.603C269.798 243.576 269.384 243.347 269.121 242.978L240.539 203.309L210.025 244.625C209.524 245.303 208.579 245.441 207.913 244.93C207.247 244.421 207.112 243.457 207.614 242.779L239.347 199.809C239.635 199.419 240.085 199.193 240.562 199.195C241.039 199.197 241.486 199.431 241.77 199.822L270.479 239.672Z" fill="#EC4899"/>
<path fill-rule="evenodd" clip-rule="evenodd" d="M250.931 56.9964C250.773 56.5521 250.687 56.0737 250.687 55.5754C250.687 53.2399 252.58 51.3437 254.914 51.3437C257.245 51.3437 259.14 53.2399 259.14 55.5754C259.14 57.9108 257.245 59.8071 254.914 59.8071C254.346 59.8071 253.806 59.695 253.31 59.4921L211.008 109.013C211.279 109.571 211.432 110.197 211.432 110.859C211.432 113.195 209.537 115.091 207.206 115.091C204.872 115.091 202.979 113.195 202.979 110.859C202.979 110.744 202.983 110.629 202.993 110.516L198.964 107.717C198.247 108.274 197.348 108.605 196.373 108.605C195.9 108.605 195.445 108.528 195.022 108.384L152.288 164.768C152.418 165.176 152.488 165.611 152.488 166.062C152.488 168.397 150.596 170.293 148.262 170.293C145.928 170.293 144.036 168.397 144.036 166.062C144.036 165.834 144.053 165.611 144.087 165.394L117.746 138.963C117.158 139.273 116.488 139.45 115.776 139.45C115.351 139.45 114.939 139.387 114.552 139.268L68.6804 210.763C69.0547 211.395 69.2697 212.131 69.2697 212.919C69.2697 215.254 67.3758 217.151 65.0429 217.151C62.7101 217.151 60.8162 215.254 60.8162 212.919C60.8162 210.583 62.7101 208.686 65.0429 208.686C65.3306 208.686 65.6115 208.715 65.8832 208.77L111.937 136.99C111.689 136.451 111.55 135.85 111.55 135.219C111.55 132.883 113.444 130.986 115.776 130.986C118.11 130.986 120.004 132.883 120.004 135.219C120.004 135.571 119.96 135.914 119.879 136.242L146.021 162.474C146.671 162.066 147.439 161.831 148.262 161.831C148.86 161.831 149.43 161.954 149.946 162.179L192.489 106.046C192.268 105.534 192.145 104.968 192.145 104.374C192.145 102.038 194.039 100.142 196.373 100.142C198.705 100.142 200.599 102.038 200.599 104.374C200.599 104.472 200.596 104.57 200.589 104.668L204.651 107.489C205.361 106.949 206.245 106.628 207.206 106.628C207.617 106.628 208.015 106.687 208.39 106.796L250.931 56.9964Z" fill="#F472B6"/>
<path d="M166.249 21.0082H31.9287V122.591H166.249V21.0082Z" fill="#EDE9FE"/>
<path fill-rule="evenodd" clip-rule="evenodd" d="M58.8792 38.1749H49.7397V112.697H58.8792V38.1749ZM77.0136 31.5232H67.8743V112.657H77.0136V31.5232ZM95.1482 48.5499H86.0089V112.614H95.1482V48.5499ZM113.283 37.9804H104.143V112.567H113.283V37.9804ZM131.418 58.7042H122.279V112.517H131.418V58.7042ZM149.551 73.7453H140.412V112.461H149.551V73.7453Z" fill="#C4B5FD"/>
<path fill-rule="evenodd" clip-rule="evenodd" d="M185.554 228.654H167.294V204.338H154.796L176.424 172.939L198.052 204.338H185.554V228.654Z" fill="#DB2777"/>
<path fill-rule="evenodd" clip-rule="evenodd" d="M284.522 25.7334L302.782 25.7334V50.0489H315.28L293.652 81.4485L272.024 50.0489H284.522V25.7334Z" fill="#8B5CF6"/>
<path d="M239.062 169.636C255.87 169.636 269.496 155.76 269.496 138.643C269.496 121.526 255.87 107.65 239.062 107.65C222.254 107.65 208.628 121.526 208.628 138.643C208.628 155.76 222.254 169.636 239.062 169.636Z" fill="#BFDBFE"/>
<path fill-rule="evenodd" clip-rule="evenodd" d="M231.96 117.504L230.84 117.911L230.286 116.329L232.24 115.619C232.703 115.451 233.2 115.67 233.353 116.106L234.289 118.782C236.025 118.233 237.757 117.898 239.483 117.774C241.687 117.615 243.885 117.801 246.071 118.333C246.319 118.392 246.52 118.555 246.625 118.776C246.727 118.998 246.725 119.256 246.613 119.485L244.146 124.561C243.96 124.943 243.521 125.152 243.107 125.055C240.958 124.553 238.757 124.572 236.503 125.109L239.623 134.025C248.259 132.713 253.416 134.964 255.223 140.48C256.217 143.472 255.91 146.361 254.312 149.134C252.876 151.732 250.514 153.928 247.208 155.698L248.817 160.296C248.969 160.732 248.719 161.221 248.257 161.389L246.338 162.086L245.785 160.505L246.87 160.112L245.296 155.614C245.156 155.213 245.353 154.762 245.757 154.562C249.047 152.925 251.393 150.879 252.776 148.379C254.13 146.028 254.383 143.589 253.543 141.059C251.917 136.097 247.066 134.453 239.129 135.81C238.71 135.88 238.312 135.657 238.18 135.279L234.529 124.847C234.453 124.628 234.476 124.386 234.591 124.174C234.707 123.965 234.905 123.805 235.141 123.736C237.782 122.951 240.359 122.791 242.871 123.256L244.57 119.76C242.897 119.443 241.218 119.342 239.533 119.464C237.691 119.596 235.847 119.992 233.992 120.648C233.533 120.811 233.04 120.592 232.888 120.158L231.96 117.504ZM244.969 149.301C246.061 148.512 246.777 147.699 247.078 146.837C247.26 146.285 247.334 145.712 247.3 145.118L249.06 144.953C249.102 145.757 248.998 146.534 248.748 147.296C248.254 148.708 247.007 150.075 244.934 151.333C244.705 151.471 244.428 151.507 244.179 151.428C243.932 151.349 243.738 151.163 243.655 150.925L241.698 145.334L243.368 144.727L244.969 149.301ZM228.001 130.251C228.044 129.43 228.218 128.696 228.513 128.049C228.52 128.033 228.53 128.017 228.537 128.001C229.247 126.666 230.295 125.665 231.676 124.997C231.903 124.888 232.165 124.875 232.394 124.959C232.623 125.046 232.799 125.224 232.877 125.447L234.479 130.026L232.809 130.632L231.546 127.022C230.949 127.463 230.471 128.02 230.109 128.693C229.901 129.157 229.788 129.684 229.757 130.272C229.758 130.287 229.756 130.303 229.754 130.319C229.687 130.942 229.796 131.628 230.058 132.377L228.388 132.983C228.041 131.991 227.918 131.079 228.001 130.251Z" fill="#2563EB"/>
<path fill-rule="evenodd" clip-rule="evenodd" d="M230.796 135.841C229.662 135.251 228.854 134.303 228.391 132.98L230.061 132.373C230.378 133.281 230.915 133.943 231.693 134.346L231.721 134.36C232.343 134.713 233.198 134.86 234.284 134.839L232.811 130.629L234.481 130.022L236.328 135.3C236.414 135.545 236.374 135.82 236.221 136.046C236.07 136.268 235.82 136.418 235.547 136.446C233.443 136.666 231.864 136.438 230.796 135.841Z" fill="#2563EB"/>
<path fill-rule="evenodd" clip-rule="evenodd" d="M242.045 140.944L243.369 144.728L241.7 145.335L240.04 140.591C239.959 140.359 239.989 140.1 240.122 139.883C240.257 139.664 240.48 139.509 240.734 139.458C243.192 138.971 244.997 139.117 246.161 139.767L246.187 139.784C247.346 140.49 248.16 141.498 248.62 142.813C248.877 143.548 249.022 144.263 249.06 144.954L247.301 145.119C247.272 144.569 247.154 144.002 246.95 143.419C246.62 142.475 246.043 141.747 245.214 141.237C244.484 140.835 243.427 140.758 242.045 140.944Z" fill="#2563EB"/>
<path fill-rule="evenodd" clip-rule="evenodd" d="M236.737 141.834C228.407 143.018 223.475 140.793 221.808 135.461C220.763 132.26 220.97 129.386 222.369 126.839C223.65 124.509 225.957 122.438 229.329 120.665L228.366 117.915C228.213 117.478 228.463 116.988 228.923 116.821L230.292 116.324L230.845 117.906L230.313 118.099L231.242 120.753C231.383 121.155 231.184 121.608 230.777 121.808C227.434 123.454 225.133 125.361 223.915 127.577C222.73 129.736 222.605 132.172 223.493 134.896C224.985 139.673 229.618 141.286 237.241 140.056C237.657 139.989 238.052 140.212 238.183 140.587L242.01 151.522C242.088 151.745 242.061 151.992 241.942 152.205C241.82 152.419 241.613 152.576 241.371 152.641C239.215 153.215 237.29 153.415 235.6 153.254C234.136 153.176 232.761 152.919 231.472 152.482L229.165 156.197C231.074 156.674 233.093 156.927 235.217 156.961C237.687 156.978 240.13 156.563 242.549 155.719C243.01 155.559 243.499 155.778 243.651 156.21L245.225 160.708L245.793 160.502L246.346 162.083L244.942 162.593C244.481 162.76 243.984 162.542 243.832 162.106L242.249 157.583C239.894 158.316 237.519 158.672 235.116 158.655C232.423 158.613 229.9 158.237 227.539 157.534C227.292 157.461 227.094 157.279 227.007 157.042C226.916 156.806 226.946 156.538 227.085 156.315L230.371 151.023C230.603 150.647 231.085 150.485 231.49 150.648C232.813 151.18 234.249 151.483 235.795 151.563L235.836 151.566C237.088 151.688 238.486 151.577 240.029 151.239L236.737 141.834Z" fill="#2563EB"/>
<path fill-rule="evenodd" clip-rule="evenodd" d="M245.481 173.518C243.22 173.992 240.877 174.242 238.479 174.242C236.49 174.242 234.88 172.599 234.88 170.576C234.88 168.554 236.49 166.911 238.479 166.911C253.593 166.911 265.863 154.415 265.863 139.024C265.863 123.632 253.593 111.135 238.479 111.135C236.49 111.135 234.88 109.493 234.88 107.47C234.88 105.448 236.49 103.805 238.479 103.805C257.565 103.805 273.062 119.586 273.062 139.024C273.062 153.43 264.548 165.828 252.369 171.28L274.931 225.479C275.707 227.341 274.852 229.495 273.023 230.283C271.195 231.073 269.08 230.203 268.304 228.34L245.481 173.518Z" fill="#1D4ED8"/>
<path fill-rule="evenodd" clip-rule="evenodd" d="M238.478 166.91C223.364 166.91 211.093 154.414 211.093 139.023C211.093 123.632 223.364 111.135 238.478 111.135C240.464 111.135 242.077 109.493 242.077 107.47C242.077 105.447 240.464 103.805 238.478 103.805C219.391 103.805 203.895 119.586 203.895 139.023C203.895 158.46 219.391 174.241 238.478 174.241C240.464 174.241 242.077 172.598 242.077 170.576C242.077 168.553 240.464 166.91 238.478 166.91Z" fill="#1D4ED8"/>
<path fill-rule="evenodd" clip-rule="evenodd" d="M286.939 185.459C286.939 185.459 285.002 178.051 285.643 168.606C286.547 155.322 294.895 143.763 307.078 138.925C319.259 134.088 333.088 136.841 342.583 145.994C344.776 148.118 346.776 150.613 348.459 153.547C356.728 167.979 359.409 183.888 352.445 199.607C352.445 199.607 356.932 229.623 350.468 251.259C347.206 262.127 337.952 270.007 326.873 271.354C326.5 271.404 326.124 271.448 325.744 271.493C315.626 272.724 305.701 268.002 300.132 259.313C289.287 242.394 272.607 216.371 272.607 216.371C272.607 216.371 263.169 217.207 259.522 217.53C258.218 217.649 257.05 216.712 256.859 215.393C256.753 214.602 256.996 213.732 258.105 212.994C258.105 212.994 256.933 212.985 256.015 212.758C254.567 212.403 253.986 211.141 253.923 209.79C253.865 208.518 254.234 207.05 255.932 206.189C253.793 206.599 251.719 205.208 251.247 203.046C251.226 202.959 251.208 202.876 251.193 202.798C251.019 202.012 251.13 201.19 251.501 200.48C251.852 199.804 252.457 199.064 253.491 198.618C253.491 198.618 252.484 198.299 251.395 197.956C249.823 197.458 248.75 195.979 248.75 194.302C248.75 192.815 249.631 191.47 250.983 190.902C253.919 189.663 258.715 187.643 258.715 187.643C258.715 187.643 252.538 179.62 255.107 177.263C255.563 176.844 256.582 176.601 259.579 179.199C260.71 180.179 265.103 181.432 270.662 180.656C270.662 180.656 277.934 180.61 286.939 185.459ZM293.624 99.1356C303.074 99.1356 310.747 106.949 310.747 116.573C310.747 126.198 303.074 134.011 293.624 134.011C284.172 134.011 276.499 126.198 276.499 116.573C276.499 106.949 284.172 99.1356 293.624 99.1356Z" fill="#0D9488"/>
<path fill-rule="evenodd" clip-rule="evenodd" d="M272.027 216.424L275.779 215.993C276.272 215.936 276.717 216.298 276.773 216.802C276.829 217.303 276.474 217.757 275.979 217.814L273.698 218.075L272.607 216.371L272.027 216.424ZM254.382 211.535L265.222 210.516C265.717 210.468 266.156 210.839 266.201 211.343C266.248 211.847 265.884 212.293 265.389 212.339L258.053 213.029C258.069 213.017 258.087 213.006 258.105 212.994C258.105 212.994 256.933 212.985 256.015 212.758C255.239 212.568 254.713 212.119 254.382 211.535ZM252.439 205.162C252.52 205.114 252.612 205.077 252.709 205.055L262.75 202.851C263.234 202.743 263.713 203.059 263.819 203.554C263.922 204.047 263.614 204.535 263.128 204.642L255.82 206.248C255.856 206.227 255.894 206.207 255.932 206.189C254.627 206.438 253.347 206.019 252.439 205.162ZM250.623 197.612L261.335 194.251C261.81 194.102 262.314 194.373 262.46 194.856C262.606 195.339 262.339 195.853 261.864 196.002L253.404 198.657C253.433 198.643 253.462 198.629 253.491 198.618C253.491 198.618 252.484 198.299 251.395 197.956C251.123 197.868 250.864 197.754 250.623 197.612ZM257.628 186.115L261.376 184.536C261.835 184.342 262.361 184.564 262.552 185.031C262.741 185.501 262.523 186.037 262.064 186.229L258.712 187.64C258.683 187.601 258.229 187.008 257.628 186.115Z" fill="#82B5B2"/>
<path fill-rule="evenodd" clip-rule="evenodd" d="M286.855 185.114C286.489 183.551 285.083 176.855 285.643 168.606C286.547 155.322 294.895 143.763 307.078 138.925C319.259 134.088 333.088 136.841 342.583 145.994C344.776 148.118 346.776 150.612 348.459 153.547C356.728 167.979 359.409 183.888 352.445 199.607C352.445 199.607 356.932 229.623 350.468 251.259C347.206 262.127 337.952 270.007 326.873 271.354C326.5 271.404 326.124 271.448 325.744 271.493C315.626 272.724 305.701 268.002 300.132 259.313L292.706 247.729L317.952 217.684C304.754 196.762 290.38 187.242 286.855 185.114Z" fill="url(#paint0_linear_9_824)"/>
<path fill-rule="evenodd" clip-rule="evenodd" d="M317.855 217.532C317.9 217.576 317.943 217.629 317.979 217.684L334.285 242.749C334.559 243.173 334.447 243.741 334.033 244.02C333.619 244.3 333.061 244.183 332.787 243.761L316.75 219.113L317.952 217.684L317.855 217.532ZM352.602 200.766L352.643 201.092L352.593 201.197C352.593 201.197 348.992 180.779 343.825 165.17C343.701 164.847 343.845 164.483 344.151 164.336C344.457 164.188 344.824 164.307 344.992 164.607C347.743 170.047 351.516 178.191 355.697 189.15C355.637 189.475 355.574 189.8 355.506 190.123L355.504 190.135L355.473 190.286L355.47 190.3L355.437 190.453L355.434 190.462C355.367 190.785 355.293 191.108 355.216 191.429L355.214 191.441L355.178 191.587L355.173 191.61L355.14 191.752L355.131 191.78L355.097 191.919L355.09 191.945L355.054 192.089L355.052 192.098C354.998 192.309 354.942 192.52 354.885 192.733L354.881 192.746L354.845 192.882L354.834 192.92L354.8 193.044L354.786 193.092L354.753 193.214L354.739 193.264L354.705 193.383L354.692 193.434L354.656 193.555L354.645 193.596L354.606 193.725C354.591 193.78 354.575 193.834 354.557 193.889L354.514 194.031L354.508 194.054L354.474 194.169L354.456 194.228L354.422 194.334L354.402 194.403L354.37 194.503L354.348 194.577L354.316 194.675L354.292 194.751L354.26 194.849L354.235 194.925L354.204 195.021L354.179 195.099L354.148 195.195L354.116 195.287L354.094 195.36L354.064 195.443L354.035 195.532L354.006 195.619L353.974 195.708L353.945 195.793L353.914 195.882L353.884 195.967L353.853 196.059L353.824 196.141L353.79 196.235L353.761 196.315L353.727 196.414L353.7 196.489L353.657 196.604L353.635 196.664L353.572 196.835L353.549 196.893L353.507 197.009L353.479 197.08L353.441 197.184L353.412 197.259L353.374 197.36L353.345 197.436L353.306 197.536L353.277 197.612L353.237 197.715L353.207 197.786L353.162 197.898L353.138 197.96L353.079 198.104L353.068 198.134L352.996 198.308L352.976 198.361L352.924 198.482L352.897 198.551L352.852 198.659L352.823 198.73L352.778 198.833L352.748 198.906L352.703 199.012L352.672 199.083L352.627 199.19L352.598 199.257L352.546 199.376L352.521 199.431L352.445 199.607L352.458 199.699L352.46 199.729L352.474 199.813L352.479 199.855L352.497 199.976L352.503 200.022L352.523 200.184L352.53 200.233L352.559 200.439L352.564 200.48L352.598 200.741L352.602 200.766ZM295.378 191.351C295.378 191.351 294.521 184.605 293.367 164.779C293.34 164.336 293.64 164.199 293.804 164.162C294.096 164.096 294.319 164.288 294.346 164.458L299.171 194.719C297.837 193.47 296.568 192.35 295.378 191.351Z" fill="#28625E"/>
<path fill-rule="evenodd" clip-rule="evenodd" d="M280.285 105.644C283.425 101.676 288.234 99.1356 293.624 99.1356C303.074 99.1356 310.747 106.949 310.747 116.573C310.747 122.019 308.29 126.885 304.446 130.083L298.469 124.037C299.106 123.991 299.763 123.819 300.399 123.511C302.651 122.419 303.229 119.549 302.363 117.696C301.495 115.843 298.964 115.225 296.715 116.317C295.255 117.025 294.812 118.76 294.537 120.06L280.285 105.644Z" fill="black"/>
<path d="M129.457 153.816C146.265 153.816 159.891 139.94 159.891 122.823C159.891 105.706 146.265 91.8306 129.457 91.8306C112.649 91.8306 99.0229 105.706 99.0229 122.823C99.0229 139.94 112.649 153.816 129.457 153.816Z" fill="#A8CFCC"/>
<path fill-rule="evenodd" clip-rule="evenodd" d="M99.7949 115.862C100.015 115.762 100.284 115.704 100.609 115.762C101.25 115.877 101.705 116.436 101.724 117.073C101.937 117.458 102.512 118.464 103.197 119.412C104.816 121.652 107.547 124.869 111.328 128.152C113.061 120.606 116.376 114.313 120.043 109.268C114.628 105.013 111.65 101.094 111.045 100.346C110.57 99.7605 110.654 98.8936 111.227 98.411C111.803 97.9285 112.653 98.0119 113.128 98.5972C113.706 99.3108 116.543 103.042 121.703 107.091C128.735 98.3093 136.351 93.9374 136.351 93.9374C136.999 93.5649 137.823 93.7988 138.189 94.4597C138.556 95.1203 138.326 95.9594 137.676 96.3319C137.676 96.3319 130.512 100.446 123.869 108.707C129.014 112.349 136.009 115.964 144.904 117.642C145.86 111.034 145.511 104.895 144.839 100.345C144.728 99.5946 145.237 98.8941 145.972 98.7809C146.71 98.668 147.398 99.1852 147.509 99.9355C148.215 104.714 148.568 111.146 147.565 118.077C151.027 118.556 154.756 118.739 158.754 118.525C159.084 118.507 159.39 118.611 159.635 118.799C159.721 119.465 159.784 120.138 159.829 120.817C159.597 121.078 159.269 121.25 158.895 121.27C154.684 121.495 150.755 121.301 147.104 120.792C145.797 127.496 143.142 134.515 138.27 140.852C143.169 141.575 148.528 141.619 154.327 140.68C153.571 141.77 152.745 142.81 151.861 143.791C146.231 144.418 141.019 144.169 136.239 143.305C132.97 146.975 128.87 150.354 123.75 153.229C123.732 153.24 123.712 153.249 123.691 153.258C123.138 153.151 122.591 153.027 122.049 152.889C122 152.828 121.955 152.761 121.917 152.688C121.557 152.024 121.795 151.187 122.448 150.821C126.719 148.42 130.24 145.648 133.128 142.643C125.115 140.682 118.437 137.032 113.18 133.119C112.59 137.57 112.593 142.428 113.42 147.692C113.492 148.154 113.328 148.601 113.018 148.904C112.186 148.358 111.382 147.774 110.609 147.151C109.799 141.358 109.934 136.038 110.73 131.197C104.35 125.924 100.516 120.596 99.4392 118.588C99.4012 118.518 99.3661 118.449 99.3335 118.383C99.4539 117.531 99.6082 116.69 99.7949 115.862ZM122.205 110.886C118.527 115.955 115.22 122.353 113.679 130.088C119.136 134.349 126.359 138.421 135.218 140.302C140.364 134.075 143.115 127.057 144.44 120.356C135.02 118.588 127.623 114.745 122.205 110.886ZM100.597 118.471C100.534 118.482 100.47 118.489 100.406 118.49C100.341 118.492 100.275 118.488 100.209 118.48C100.35 118.498 100.479 118.494 100.597 118.471Z" fill="#82B5B2"/>
<path fill-rule="evenodd" clip-rule="evenodd" d="M25.5707 181.364C25.5707 181.364 -19.1554 145.325 11.9122 102.641C15.2189 98.0978 35.284 71.6185 63.7971 53.6709C64.9104 52.9679 66.3435 53.0847 67.3333 53.9589C67.9643 54.5302 68.3745 55.4025 67.9676 56.7419C67.9676 56.7419 72.3804 55.7624 72.0762 60.0795C72.0762 60.0795 77.2435 58.6684 77.423 64.089C77.423 64.089 85.9657 53.4288 89.6874 48.7843C90.663 47.5672 92.3681 47.2641 93.6905 48.0732C93.6908 48.0735 93.6908 48.0735 93.691 48.0735C94.2911 48.4407 94.7233 49.0356 94.8922 49.7274C95.0611 50.4192 94.9529 51.1511 94.5914 51.7616C78.7112 78.5451 61.8305 103.118 44.8991 127.579C44.8991 127.579 58.8657 141.967 66.0628 147.147C68.9853 149.247 98.1892 167.83 102.412 178.005C102.412 178.005 102.768 175.673 103.174 173.018C103.877 168.414 107.21 164.685 111.641 163.535C114.646 162.756 117.436 162.032 117.436 162.032C117.436 162.032 122.421 161.166 126.665 161.2C129.446 161.221 131.902 163.042 132.779 165.727C133.182 166.966 133.013 168.325 132.316 169.42C131.922 170.04 131.574 170.586 131.574 170.586C131.574 170.586 132.575 170.932 133.504 171.252C134.493 171.594 135.292 172.347 135.704 173.325C136.504 175.231 136.16 177.437 134.817 178.997C134.399 179.485 134.088 179.845 134.088 179.845H134.392C135.976 179.845 137.4 180.825 137.991 182.323C138.803 184.381 138.146 186.735 136.396 188.053C135.962 188.378 135.661 188.607 135.661 188.607C136.21 188.417 136.723 188.802 137.082 189.684C137.795 191.427 137.141 193.44 135.589 194.474C133.168 196.084 129.974 198.21 129.974 198.21C129.257 213.244 127.473 229.46 119.094 248.787C116.565 254.599 111.592 258.931 105.563 260.573C105.559 260.578 105.554 260.578 105.55 260.58C92.9302 264.016 79.7053 257.76 74.1453 245.725C71.4761 239.941 68.6254 232.812 66.0628 224.416C66.0628 224.416 55.4544 225.827 44.8991 220.384C32.2187 213.847 19.615 199.025 25.5707 181.364Z" fill="url(#paint1_linear_9_824)"/>
<path fill-rule="evenodd" clip-rule="evenodd" d="M6.49805 156.814C7.83017 152.649 12.4798 143.296 27.2449 144.175C27.2449 144.175 32.4819 128.625 49.0405 131.754C53.7374 136.418 61.3509 143.756 66.0628 147.147C68.9853 149.247 98.1892 167.83 102.412 178.005L102.461 177.687C105.187 185.833 110.136 203.316 107.648 222.235C107.648 222.235 97.8439 228.913 88.3078 220.524C88.3078 220.524 79.2806 232.72 66.225 224.943C66.1706 224.767 66.1166 224.592 66.0628 224.416C66.0628 224.416 55.4544 225.827 44.8991 220.384C32.2187 213.846 19.615 199.025 25.5707 181.364C25.5707 181.364 13.7635 171.85 6.49805 156.814ZM68.5703 143.092L72.4123 145.527C71.0267 144.883 69.7364 144.063 68.5703 143.092Z" fill="#3B82F6"/>
<path fill-rule="evenodd" clip-rule="evenodd" d="M106.305 217.835L104.126 242.905C104.082 243.409 104.448 243.855 104.943 243.899C105.437 243.945 105.874 243.571 105.919 243.067L108.096 217.997C108.141 217.493 107.774 217.047 107.279 217.003C106.785 216.957 106.348 217.331 106.305 217.835Z" fill="#3B82F6"/>
<path fill-rule="evenodd" clip-rule="evenodd" d="M59.5891 224.453C58.8223 215.281 60.8702 207.822 62.2394 204.019C62.3492 203.753 62.6268 203.607 62.903 203.664C63.179 203.721 63.3774 203.969 63.377 204.255C63.6422 211.712 65.5697 221.756 66.191 224.833C66.1481 224.693 66.1053 224.556 66.0628 224.416C66.0628 224.416 63.4771 224.76 59.5891 224.453ZM19.3361 175.357C22.5922 171.243 25.8111 168.13 28.8078 165.773C33.4226 162.142 37.5101 160.305 40.3921 159.365C40.7254 159.29 41.0649 159.469 41.1985 159.787C41.3321 160.108 41.2219 160.479 40.9367 160.671C32.2176 166.746 27.2449 177.268 25.5623 181.357C25.3975 181.222 22.7939 179.093 19.3361 175.357Z" fill="#1E40AF"/>
<path fill-rule="evenodd" clip-rule="evenodd" d="M135.679 188.6C136.223 188.426 136.727 188.813 137.082 189.684C137.103 189.732 137.121 189.78 137.139 189.828C135.476 190.886 131.861 192.975 128.559 193.44C128.067 193.509 127.612 193.159 127.545 192.659C127.475 192.158 127.819 191.695 128.312 191.626C131.047 191.241 134.007 189.631 135.679 188.6ZM134.091 179.845H134.392C135.125 179.845 135.825 180.056 136.423 180.431C135.431 181.169 131.479 183.973 127.338 184.976C126.854 185.093 126.371 184.788 126.254 184.296C126.139 183.806 126.438 183.311 126.922 183.194C129.749 182.507 132.48 180.912 134.091 179.845ZM131.585 170.59L133.375 171.209C131.726 173.378 128.633 176.603 124.326 177.483C123.84 177.584 123.365 177.261 123.266 176.766C123.17 176.269 123.484 175.786 123.973 175.687C127.475 174.97 130.062 172.487 131.585 170.59Z" fill="#3B82F6"/>
<path fill-rule="evenodd" clip-rule="evenodd" d="M119.546 164.549C119.546 164.549 116.475 165.239 113.238 164.769C112.746 164.698 112.291 165.049 112.219 165.548C112.15 166.05 112.494 166.513 112.984 166.584C116.549 167.101 119.933 166.341 119.933 166.341C120.416 166.231 120.724 165.741 120.616 165.248C120.511 164.753 120.029 164.442 119.546 164.549Z" fill="#3B82F6"/>
<path fill-rule="evenodd" clip-rule="evenodd" d="M76.9258 61.8288C77.2077 62.4028 77.3915 63.1416 77.423 64.089L78.781 62.3943C78.7546 62.4431 78.7232 62.4901 78.6872 62.5348L75.3204 66.6865C75.0041 67.0764 74.4366 67.1316 74.0537 66.8096C73.6709 66.4875 73.6167 65.9095 73.933 65.5196L76.9258 61.8288ZM71.6207 57.8213C71.9557 58.3326 72.1478 59.0563 72.0765 60.0759L69.9892 62.5096C69.6626 62.8905 69.0937 62.9297 68.7196 62.5971C68.3455 62.2645 68.3071 61.6851 68.6337 61.3042L71.6207 57.8213ZM67.7492 54.4365C68.1163 54.9865 68.2747 55.7312 67.9676 56.7419H67.9679C66.8413 57.8234 65.542 59.0783 65.542 59.0783C65.1817 59.4262 64.6117 59.4109 64.27 59.0439C63.9283 58.6769 63.9434 58.0964 64.3037 57.7485C64.3037 57.7485 66.6045 55.5269 67.7492 54.4365Z" fill="#3B82F6"/>
<path fill-rule="evenodd" clip-rule="evenodd" d="M44.8991 127.579C44.8991 127.579 38.961 121.608 35.444 118.071C35.2024 117.828 35.1657 117.449 35.3562 117.164C35.5465 116.879 35.9114 116.768 36.2277 116.899C40.8692 118.823 48.7438 122.086 48.7438 122.086L44.8991 127.579Z" fill="#3B82F6"/>
<path fill-rule="evenodd" clip-rule="evenodd" d="M116.664 166.688L118.026 156.492C115.845 155.721 113.708 154.718 111.646 153.467C109.939 152.433 109.376 150.182 110.39 148.444C111.406 146.706 113.616 146.136 115.321 147.169C128.309 155.04 145.12 150.691 152.841 137.468C160.559 124.243 156.282 107.118 143.294 99.2485C141.587 98.2142 141.025 95.9634 142.04 94.2256C143.054 92.4875 145.264 91.916 146.971 92.9503C163.373 102.889 168.773 124.515 159.026 141.215C151.8 153.595 138.267 159.814 125.067 158.156L124.181 164.789C122.553 165.574 119.855 166.59 116.664 166.688Z" fill="#1D4ED8"/>
<path fill-rule="evenodd" clip-rule="evenodd" d="M115.318 147.179C102.324 139.307 98.0439 122.178 105.767 108.951C113.49 95.725 130.311 91.3769 143.305 99.2481C145.013 100.282 147.224 99.711 148.239 97.9727C149.254 96.2343 148.691 93.983 146.984 92.9486C130.574 83.0086 109.332 88.4994 99.5784 105.203C89.8251 121.906 95.2298 143.538 111.64 153.478C113.348 154.512 115.558 153.941 116.573 152.203C117.588 150.464 117.026 148.213 115.318 147.179Z" fill="#1D4ED8"/>
<path d="M79.7455 147.145C89.5176 147.145 97.4395 139.078 97.4395 129.127C97.4395 119.175 89.5176 111.108 79.7455 111.108C69.9734 111.108 62.0516 119.175 62.0516 129.127C62.0516 139.078 69.9734 147.145 79.7455 147.145Z" fill="#93C5FD"/>
<path fill-rule="evenodd" clip-rule="evenodd" d="M73.5931 136.244C70.4013 136.805 67.0047 136.884 63.4816 136.23C62.5615 134.05 62.0516 131.649 62.0516 129.127C62.0516 119.182 69.98 111.108 79.7455 111.108C87.5298 111.108 94.1467 116.238 96.5109 123.355C95.7695 126.743 90.2019 133.51 78.7648 134.89C79.1348 133.926 79.165 132.755 78.7668 131.616C77.9853 129.382 75.8484 128.112 73.9977 128.783C72.1471 129.454 71.2791 131.813 72.0605 134.048C72.3811 134.965 72.9297 135.719 73.5931 136.244Z" fill="black"/>
<path d="M85.8458 109.843C92.5103 109.843 97.9129 104.341 97.9129 97.5542C97.9129 90.7673 92.5103 85.2655 85.8458 85.2655C79.1814 85.2655 73.7787 90.7673 73.7787 97.5542C73.7787 104.341 79.1814 109.843 85.8458 109.843Z" fill="black"/>
<path fill-rule="evenodd" clip-rule="evenodd" d="M213.84 58.542C207.328 71.1075 194.364 79.6767 179.451 79.6767C157.995 79.6767 140.573 61.9362 140.573 40.0847C140.573 26.7875 147.025 15.0128 156.918 7.84093L179.451 40.0847L213.84 58.542Z" fill="#7C3AED"/>
<path fill-rule="evenodd" clip-rule="evenodd" d="M179.451 40.0847L156.918 7.84091C162.56 3.73336 169.328 1.13289 176.657 0.606018L179.451 40.0847Z" fill="#60A5FA"/>
<path fill-rule="evenodd" clip-rule="evenodd" d="M177.669 0.53867L179.451 0.492859C190.381 0.492859 200.265 5.09613 207.326 12.5092L179.451 40.0847L176.657 0.606019L177.183 0.565018L177.669 0.53867Z" fill="#A8CFCC"/>
<path fill-rule="evenodd" clip-rule="evenodd" d="M217.833 10.1898C224.644 17.3141 228.837 27.045 228.837 37.7653C228.837 44.43 227.216 50.7124 224.348 56.2226L189.958 37.7653L217.833 10.1898Z" fill="#F472B6"/>
<defs>
<linearGradient id="paint0_linear_9_824" x1="285.512" y1="204.131" x2="382.834" y2="280.504" gradientUnits="userSpaceOnUse">
<stop stop-color="#2DD4BF"/>
<stop offset="0.57" stop-color="#99F6E4"/>
<stop offset="0.8" stop-color="#CCFBF1"/>
<stop offset="1" stop-color="#F0FDFA"/>
</linearGradient>
<linearGradient id="paint1_linear_9_824" x1="72.3212" y1="216.421" x2="-15.0844" y2="238.71" gradientUnits="userSpaceOnUse">
<stop stop-color="#93C5FD"/>
<stop offset="0.47" stop-color="#60A5FA"/>
<stop offset="1" stop-color="#2563EB"/>
</linearGradient>
</defs>
</svg>
