<svg width="164" height="134" viewBox="0 0 164 134" fill="none" xmlns="http://www.w3.org/2000/svg">
<path fill-rule="evenodd" clip-rule="evenodd" d="M4.98792 125.119L4.87029 119.929H9.2551V114.987H157.061V119.929H160.566V125.138H163.251V130.348H0.580555V125.138H4.98792V125.119ZM16.5199 36.5688H9.2551L84.0387 0.708893L158.822 36.5688H150.612V114.987H16.5199V36.5688Z" fill="#CCFBF1"/>
<path fill-rule="evenodd" clip-rule="evenodd" d="M160.566 125.115H4.98784L4.95534 123.682H160.566V125.115ZM157.061 119.899H9.2551V118.467H157.061V119.899ZM150.612 114.975H16.5199V113.542H150.612V114.975ZM150.612 38.121L16.5199 38.3159V36.8078L150.612 36.613V38.121Z" fill="#14B8A6"/>
<path fill-rule="evenodd" clip-rule="evenodd" d="M150.612 37.7412L130.601 40.6291V113.875H111.784V39.2448C108.283 39.6757 99.6613 40.7455 91.6212 41.8118V113.875H72.8037V38.2341L52.6409 40.6291V113.875H33.824V38.5133L16.5199 40.6291V37.4644C16.5199 37.4644 29.247 37.8513 33.824 38.1422V37.7192H52.6409V37.4644H74.8396L74.1655 37.7192H91.6212V38.1658L111.784 37.7523V37.7192H130.601V37.4644L150.612 37.7173V37.7412Z" fill="#14B8A6"/>
<path d="M84.0389 31.5489C90.6112 31.5489 95.939 26.221 95.939 19.6488C95.939 13.0765 90.6112 7.74866 84.0389 7.74866C77.4667 7.74866 72.1388 13.0765 72.1388 19.6488C72.1388 26.221 77.4667 31.5489 84.0389 31.5489Z" fill="#FFCF84"/>
<path fill-rule="evenodd" clip-rule="evenodd" d="M84.0388 10.3667C89.1615 10.3667 93.3209 14.5258 93.3209 19.6488C93.3209 24.7717 89.1615 28.9309 84.0388 28.9309C83.8308 28.9309 83.6618 29.0998 83.6618 29.3079C83.6618 29.516 83.8308 29.6849 84.0388 29.6849C89.5777 29.6849 94.0749 25.1879 94.0749 19.6488C94.0749 14.1097 89.5777 9.61266 84.0388 9.61266C83.8308 9.61266 83.6618 9.78158 83.6618 9.98967C83.6618 10.1978 83.8308 10.3667 84.0388 10.3667Z" fill="#FD9909"/>
<path fill-rule="evenodd" clip-rule="evenodd" d="M84.0389 28.9309C78.9156 28.9309 74.7562 24.7717 74.7562 19.6488C74.7562 14.5258 78.9156 10.3667 84.0389 10.3667C84.247 10.3667 84.4159 10.1978 84.4159 9.98967C84.4159 9.78158 84.247 9.61266 84.0389 9.61266C78.4994 9.61266 74.0028 14.1097 74.0028 19.6488C74.0028 25.1879 78.4994 29.6849 84.0389 29.6849C84.247 29.6849 84.4159 29.516 84.4159 29.3079C84.4159 29.0998 84.247 28.9309 84.0389 28.9309Z" fill="#FD9909"/>
<path fill-rule="evenodd" clip-rule="evenodd" d="M85.4713 31.4634L85.2278 29.5028C85.2021 29.2963 85.3492 29.1079 85.5558 29.0822C85.7624 29.0565 85.9501 29.2033 85.9765 29.4099L86.2171 31.3496C85.9713 31.3952 85.7224 31.4332 85.4713 31.4634ZM87.6965 30.9751L87.0224 28.9858C86.956 28.7887 87.0616 28.5745 87.2591 28.5077C87.4559 28.4409 87.6701 28.5467 87.7364 28.7437L88.4068 30.7204C88.1738 30.8126 87.937 30.8975 87.6965 30.9751ZM77.4787 29.5766L78.5268 27.8531C78.6346 27.6753 78.8668 27.6187 79.0448 27.7269C79.2227 27.835 79.2793 28.0671 79.1714 28.2449L78.1203 29.973C77.9017 29.8474 77.6875 29.7151 77.4787 29.5766ZM93.8297 26.4103L92.0977 25.1286C91.9311 25.0048 91.8956 24.7686 92.0193 24.6013C92.143 24.434 92.379 24.3987 92.5464 24.5225L94.2399 25.7758C94.1102 25.9919 93.973 26.2036 93.8297 26.4103ZM72.729 23.358L74.7642 22.442C74.9534 22.3566 75.1774 22.4414 75.2626 22.6311C75.3478 22.8209 75.2633 23.0442 75.0733 23.1296L72.9877 24.0685C72.8942 23.8353 72.8075 23.5984 72.729 23.358ZM95.5858 16.7624C95.6462 17.0054 95.6997 17.2512 95.7449 17.4996L93.7385 17.9728C93.5364 18.0206 93.3328 17.8949 93.2853 17.6924C93.237 17.4899 93.363 17.2867 93.565 17.2389L95.5858 16.7624ZM74.2054 12.9476L75.9985 14.1205C76.1727 14.2344 76.2217 14.4682 76.1078 14.6424C75.994 14.8165 75.7602 14.8654 75.586 14.7515L73.8005 13.5834C73.9287 13.3669 74.0644 13.1549 74.2054 12.9476ZM75.3757 11.493L76.834 12.5654C77.0014 12.6886 77.0375 12.9249 76.9139 13.0924C76.791 13.26 76.5542 13.296 76.3868 13.1727L74.875 12.0602C75.0356 11.8659 75.203 11.6767 75.3757 11.493ZM90.9169 9.93931C91.122 10.085 91.3226 10.2369 91.5179 10.3952L90.2142 12.0389C90.0845 12.2019 89.8469 12.2292 89.6841 12.0999C89.5212 11.9706 89.4941 11.7332 89.623 11.5702L90.9169 9.93931ZM88.8976 8.78414C89.1276 8.88737 89.3538 8.99776 89.5755 9.11456L88.6563 10.8386C88.5583 11.0222 88.3298 11.0918 88.1459 10.9939C87.9626 10.8959 87.8933 10.6674 87.9913 10.4838L88.8976 8.78414ZM81.3702 8.04964L81.901 9.94225C81.9568 10.1426 81.8399 10.3509 81.6394 10.407C81.4388 10.4633 81.2307 10.3463 81.1749 10.1458L80.641 8.24169C80.8808 8.17021 81.1236 8.10612 81.3702 8.04964Z" fill="#FD9909"/>
<path d="M81.1125 22.7906C82.0985 23.5156 83.2266 23.8332 84.5153 23.7755C86.0496 23.6704 86.7775 23.0795 86.7484 21.9998C86.6977 21.121 86.1553 20.62 85.1213 20.4966C84.6387 20.4579 84.1231 20.4211 83.557 20.3705C82.5404 20.2628 81.7425 19.9262 81.1807 19.3763C80.6015 18.8108 80.2953 18.0965 80.2456 17.2343C80.1863 16.2063 80.4687 15.3582 81.1257 14.6881C81.7498 14.02 82.6726 13.6507 83.8768 13.5646C85.348 13.5131 86.6431 13.8543 87.7612 14.5717L86.8557 16.1045C85.9473 15.5747 84.9551 15.3158 83.8975 15.3601C83.3527 15.3915 82.8981 15.5508 82.5512 15.8536C82.1877 16.1574 82.0145 16.5999 82.0305 17.1646C82.0505 17.5128 82.1998 17.8037 82.4802 18.0703C82.7606 18.3369 83.2004 18.4946 83.7849 18.5773C84.1014 18.609 84.551 18.6496 85.1161 18.6836C86.2308 18.769 87.0627 19.1203 87.6283 19.7365C88.1764 20.3371 88.4826 21.0514 88.5314 21.897C88.6119 24.1549 87.2911 25.3789 84.602 25.5672C82.8685 25.6671 81.3347 25.2066 80.0178 24.2012L81.1125 22.7906Z" fill="#FD9909"/>
<path fill-rule="evenodd" clip-rule="evenodd" d="M83.2831 12.0903L82.8799 26.943L83.7738 26.9672L84.177 12.1145L83.2831 12.0903Z" fill="#FD9909"/>
<path fill-rule="evenodd" clip-rule="evenodd" d="M84.8466 12.136L84.4434 26.9887L85.3374 27.0129L85.7405 12.1602L84.8466 12.136Z" fill="#FD9909"/>
<path fill-rule="evenodd" clip-rule="evenodd" d="M38.224 76.7579L40.9044 91.3786L27.9707 94.0636L25.3371 79.2164L38.224 76.7579Z" fill="white"/>
<path fill-rule="evenodd" clip-rule="evenodd" d="M25.7733 79.5171L27.179 87.4418C27.2152 87.6468 27.0787 87.8422 26.8736 87.8789C26.6688 87.915 26.473 87.7781 26.4363 87.5737L24.966 79.2821C24.93 79.079 25.0639 78.8846 25.2666 78.8461L38.1533 76.3875C38.2522 76.3683 38.3543 76.3898 38.4371 76.4467C38.5199 76.5036 38.5767 76.591 38.5951 76.6895L39.9114 83.8702C39.9487 84.0751 39.8129 84.2719 39.6085 84.3091C39.4036 84.3469 39.2073 84.2107 39.1696 84.0064L37.9217 77.1992L25.7733 79.5171Z" fill="black"/>
<path fill-rule="evenodd" clip-rule="evenodd" d="M40.467 91.0845L39.1696 84.0064C39.1322 83.8015 39.2676 83.6053 39.4725 83.5675C39.6769 83.5303 39.8736 83.6659 39.9114 83.8702L41.2751 91.3109C41.3123 91.5119 41.1817 91.706 40.981 91.7478L28.0473 94.4328C27.9472 94.4539 27.8435 94.4331 27.7591 94.376C27.6747 94.3188 27.6171 94.2299 27.5992 94.1299L26.4363 87.5737C26.4001 87.3686 26.5371 87.1727 26.7417 87.1366C26.9469 87.0999 27.1427 87.2367 27.179 87.4418L28.274 93.6157L40.467 91.0845Z" fill="black"/>
<path fill-rule="evenodd" clip-rule="evenodd" d="M39.4482 90.4095L39.2713 89.4641L28.8663 91.4157L29.0436 92.3614L39.4482 90.4095ZM39.0502 88.2358L38.8729 87.291L28.4678 89.2426L28.6456 90.1877L39.0502 88.2358ZM38.6518 86.0628L38.4743 85.1169L28.0698 87.0689L28.2471 88.0147L38.6518 86.0628ZM38.2535 83.8898L38.0762 82.9441L27.6714 84.8959L27.8487 85.8416L38.2535 83.8898ZM37.8551 81.7167L37.6778 80.771L27.273 82.7228L27.4503 83.6685L37.8551 81.7167ZM37.4566 79.5436L37.2793 78.5979L26.8745 80.5497L27.0522 81.4948L37.4566 79.5436Z" fill="black"/>
<path fill-rule="evenodd" clip-rule="evenodd" d="M40.1508 75.6738L48.5549 87.9343L37.837 95.6554L29.3834 83.1689L40.1508 75.6738Z" fill="white"/>
<path fill-rule="evenodd" clip-rule="evenodd" d="M48.1396 87.8617L45.1149 83.4487C45.0206 83.3119 45.0558 83.1236 45.1931 83.0298C45.3305 82.9352 45.5183 82.9703 45.6124 83.1079L48.8038 87.7636C48.8963 87.8992 48.8641 88.0836 48.7312 88.1791L38.0132 95.9001C37.947 95.9483 37.8644 95.9667 37.7842 95.9525C37.7039 95.9383 37.6328 95.8921 37.5872 95.8244L34.0044 90.5328C33.9111 90.3946 33.9472 90.2072 34.0851 90.1136C34.2229 90.0207 34.4106 90.0565 34.5039 90.1947L37.9125 95.2297L48.1396 87.8617Z" fill="black"/>
<path fill-rule="evenodd" clip-rule="evenodd" d="M29.8 83.2465L34.5039 90.1947C34.5973 90.3321 34.5611 90.5202 34.4233 90.6131C34.2854 90.7068 34.0978 90.6702 34.0044 90.5328L29.1336 83.338C29.0411 83.2015 29.0757 83.0154 29.2111 82.9212L39.9785 75.4261C40.0445 75.3801 40.1261 75.3622 40.205 75.377C40.2843 75.391 40.3542 75.4369 40.3996 75.503L45.6124 83.1079C45.7065 83.2454 45.6714 83.433 45.534 83.5276C45.3968 83.6214 45.2089 83.5863 45.1149 83.4487L40.0738 76.0946L29.8 83.2465Z" fill="black"/>
<path fill-rule="evenodd" clip-rule="evenodd" d="M46.8302 87.6425L46.2836 86.8512L37.5762 92.8723L38.1234 93.6638L46.8302 87.6425ZM45.5813 85.8195L45.0345 85.0289L36.327 91.05L36.8743 91.8407L45.5813 85.8195ZM44.3321 83.9972L43.7848 83.2057L35.078 89.227L35.6252 90.0185L44.3321 83.9972ZM43.0832 82.175L42.536 81.3836L33.8289 87.4048L34.3761 88.1962L43.0832 82.175ZM41.834 80.3528L41.2869 79.5613L32.5798 85.5825L33.1269 86.374L41.834 80.3528ZM40.5848 78.5305L40.0377 77.7391L31.3306 83.7603L31.8779 84.551L40.5848 78.5305Z" fill="black"/>
<path d="M27.7759 130.618C33.2821 130.618 37.7457 126.034 37.7457 120.381C37.7457 114.727 33.2821 110.143 27.7759 110.143C22.2697 110.143 17.8061 114.727 17.8061 120.381C17.8061 126.034 22.2697 130.618 27.7759 130.618Z" fill="#FFCF84"/>
<path fill-rule="evenodd" clip-rule="evenodd" d="M27.7758 112.396C32.0676 112.396 35.5523 115.974 35.5523 120.381C35.5523 124.788 32.0676 128.365 27.7758 128.365C27.6015 128.365 27.46 128.511 27.46 128.69C27.46 128.869 27.6015 129.014 27.7758 129.014C32.4163 129.014 36.184 125.146 36.184 120.381C36.184 115.616 32.4163 111.747 27.7758 111.747C27.6015 111.747 27.46 111.892 27.46 112.071C27.46 112.25 27.6015 112.396 27.7758 112.396Z" fill="#FD9909"/>
<path fill-rule="evenodd" clip-rule="evenodd" d="M27.7759 128.365C23.4836 128.365 19.9989 124.788 19.9989 120.381C19.9989 115.974 23.4836 112.396 27.7759 112.396C27.9502 112.396 28.0917 112.25 28.0917 112.071C28.0917 111.892 27.9502 111.747 27.7759 111.747C23.1349 111.747 19.3677 115.616 19.3677 120.381C19.3677 125.146 23.1349 129.014 27.7759 129.014C27.9502 129.014 28.0917 128.869 28.0917 128.69C28.0917 128.511 27.9502 128.365 27.7759 128.365Z" fill="#FD9909"/>
<path fill-rule="evenodd" clip-rule="evenodd" d="M28.976 130.544L28.7719 128.857C28.7504 128.68 28.8736 128.518 29.0467 128.496C29.2198 128.473 29.3771 128.6 29.3992 128.777L29.6007 130.446C29.3948 130.485 29.1863 130.518 28.976 130.544ZM30.8402 130.124L30.2754 128.413C30.2198 128.243 30.3082 128.059 30.4738 128.001C30.6386 127.944 30.818 128.035 30.8736 128.204L31.4352 129.905C31.24 129.984 31.0417 130.057 30.8402 130.124ZM22.2797 128.921L23.1578 127.438C23.2482 127.285 23.4427 127.237 23.5918 127.33C23.7409 127.423 23.7883 127.622 23.6979 127.775L22.8173 129.262C22.6341 129.154 22.4547 129.04 22.2797 128.921ZM35.9785 126.197L34.5275 125.095C34.3879 124.988 34.3582 124.785 34.4618 124.641C34.5654 124.497 34.7631 124.467 34.9034 124.573L36.3222 125.651C36.2135 125.837 36.0986 126.019 35.9785 126.197ZM18.3006 123.571L20.0056 122.783C20.1641 122.71 20.3517 122.783 20.4231 122.946C20.4945 123.109 20.4238 123.301 20.2646 123.375L18.5172 124.183C18.4389 123.982 18.3663 123.778 18.3006 123.571ZM37.4498 117.898C37.5004 118.107 37.5452 118.318 37.5831 118.532L35.9021 118.939C35.7328 118.98 35.5622 118.872 35.5224 118.698C35.482 118.523 35.5875 118.349 35.7568 118.307L37.4498 117.898ZM19.5375 114.616L21.0397 115.625C21.1856 115.723 21.2267 115.924 21.1313 116.074C21.0359 116.224 20.8401 116.266 20.6941 116.168L19.1982 115.163C19.3056 114.977 19.4193 114.794 19.5375 114.616ZM20.5179 113.365L21.7396 114.287C21.8799 114.393 21.9102 114.596 21.8066 114.74C21.7036 114.885 21.5053 114.916 21.365 114.81L20.0984 113.852C20.233 113.685 20.3732 113.523 20.5179 113.365ZM33.5382 112.028C33.71 112.153 33.8781 112.284 34.0417 112.42L32.9495 113.834C32.8408 113.974 32.6418 113.998 32.5054 113.887C32.3689 113.775 32.3462 113.571 32.4542 113.431L33.5382 112.028ZM31.8465 111.034C32.0392 111.123 32.2287 111.218 32.4144 111.318L31.6443 112.802C31.5622 112.96 31.3708 113.019 31.2167 112.935C31.0631 112.851 31.005 112.654 31.0872 112.496L31.8465 111.034ZM25.54 110.402L25.9848 112.031C26.0315 112.203 25.9336 112.382 25.7656 112.43C25.5975 112.479 25.4232 112.378 25.3764 112.206L24.9292 110.568C25.1301 110.506 25.3335 110.451 25.54 110.402Z" fill="#FD9909"/>
<path d="M62.4401 123.542C63.8237 128.839 69.2914 131.998 74.6526 130.598C80.0137 129.198 83.2381 123.768 81.8545 118.471C80.4708 113.174 75.0031 110.015 69.642 111.415C64.2808 112.816 61.0564 118.245 62.4401 123.542Z" fill="#FFCF84"/>
<path fill-rule="evenodd" clip-rule="evenodd" d="M79.7189 119.029C80.7974 123.158 78.2803 127.396 74.1014 128.488C69.9225 129.579 65.6541 127.113 64.5757 122.984C64.5319 122.817 64.3585 122.716 64.1888 122.761C64.019 122.805 63.9168 122.977 63.9606 123.145C65.1267 127.609 69.7418 130.276 74.2601 129.095C78.7785 127.915 81.5 123.332 80.334 118.868C80.2902 118.7 80.1168 118.6 79.9471 118.645C79.7773 118.689 79.6751 118.861 79.7189 119.029Z" fill="#FD9909"/>
<path fill-rule="evenodd" clip-rule="evenodd" d="M64.5757 122.984C63.4971 118.855 66.0142 114.616 70.193 113.525C74.3719 112.433 78.6403 114.9 79.7189 119.029C79.7627 119.197 79.9361 119.297 80.1058 119.252C80.2756 119.208 80.3778 119.036 80.334 118.868C79.1678 114.403 74.5528 111.737 70.0344 112.918C65.5161 114.098 62.7944 118.68 63.9606 123.145C64.0044 123.313 64.1778 123.413 64.3475 123.368C64.5173 123.324 64.6195 123.152 64.5757 122.984Z" fill="#FD9909"/>
<path fill-rule="evenodd" clip-rule="evenodd" d="M62.8114 124.678L64.3594 124.064C64.5225 124 64.7071 124.078 64.7716 124.239C64.836 124.4 64.7558 124.583 64.5929 124.648L63.0612 125.255C62.9723 125.067 62.8889 124.874 62.8114 124.678ZM63.6781 126.368L65.159 125.401C65.3058 125.305 65.5028 125.345 65.5988 125.49C65.6947 125.634 65.6535 125.829 65.5067 125.925L64.0354 126.886C63.9112 126.718 63.7921 126.545 63.6781 126.368ZM62.6679 117.834L64.2944 118.312C64.4621 118.361 64.5571 118.536 64.5064 118.703C64.4557 118.869 64.2782 118.964 64.1105 118.915L62.4796 118.436C62.536 118.233 62.5988 118.032 62.6679 117.834ZM68.693 130.339L69.3738 128.669C69.4397 128.509 69.625 128.43 69.7875 128.494C69.95 128.558 70.0284 128.741 69.9627 128.902L69.2969 130.534C69.0933 130.475 68.8918 130.41 68.693 130.339ZM66.7406 112.681L67.9162 114.126C68.0257 114.261 68.0037 114.459 67.8669 114.568C67.73 114.678 67.5301 114.657 67.4204 114.522L66.2155 113.041C66.386 112.916 66.5609 112.796 66.7406 112.681ZM76.9327 129.698C76.7472 129.799 76.558 129.894 76.3648 129.984L75.5565 128.467C75.4749 128.315 75.5346 128.124 75.6897 128.042C75.8448 127.96 76.0371 128.018 76.1186 128.171L76.9327 129.698ZM75.5433 111.653L74.9641 113.348C74.9079 113.513 74.7275 113.602 74.5614 113.548C74.3954 113.493 74.3063 113.315 74.3626 113.15L74.9395 111.462C75.1431 111.519 75.3446 111.584 75.5433 111.653ZM76.9763 112.286L76.4086 113.69C76.3432 113.851 76.1582 113.931 75.9954 113.867C75.8328 113.804 75.7537 113.62 75.819 113.459L76.4082 112.004C76.6005 112.092 76.7901 112.186 76.9763 112.286ZM81.5155 124.481C81.4399 124.678 81.3582 124.872 81.2702 125.063L79.6549 124.362C79.4946 124.293 79.4223 124.107 79.4935 123.948C79.5647 123.789 79.7527 123.717 79.9128 123.786L81.5155 124.481ZM82.0327 122.608C81.9969 122.815 81.9545 123.021 81.9059 123.224L80.306 122.851C80.1356 122.811 80.0308 122.642 80.0719 122.473C80.1132 122.304 80.2851 122.2 80.4555 122.239L82.0327 122.608ZM81.0471 116.384L79.615 117.215C79.4634 117.303 79.2689 117.253 79.1808 117.103C79.0927 116.954 79.1444 116.761 79.2961 116.673L80.737 115.837C80.8458 116.015 80.9492 116.198 81.0471 116.384Z" fill="#FD9909"/>
<path fill-rule="evenodd" clip-rule="evenodd" d="M49.5112 46.1899C49.4848 46.1489 48.4588 46.1864 48.3791 46.1814C47.1774 46.1069 45.9775 45.9892 44.7815 45.852C40.8068 45.3959 36.0641 45.082 32.7843 42.5476C29.0532 39.6645 32.1968 35.4296 36.2832 36.213C41.3215 37.1789 45.1378 42.1704 49.4661 44.6591" fill="black"/>
<path d="M53.6171 51.0746C56.322 51.0746 58.5147 48.8819 58.5147 46.1771C58.5147 43.4722 56.322 41.2795 53.6171 41.2795C50.9123 41.2795 48.7196 43.4722 48.7196 46.1771C48.7196 48.8819 50.9123 51.0746 53.6171 51.0746Z" fill="#DBEAFE"/>
<path fill-rule="evenodd" clip-rule="evenodd" d="M51.4823 48.0592L49.8818 49.3433C49.1571 48.4895 48.7196 47.384 48.7196 46.1771C48.7196 43.474 50.9141 41.2794 53.6172 41.2794C56.1202 41.2794 58.187 43.1612 58.4796 45.5862C57.6607 45.4902 56.9805 44.9845 56.4316 44.0879C56.3856 45.9152 54.7776 46.6127 52.8386 46.9709C52.7575 46.5058 52.3426 46.1511 51.8438 46.1511C51.2868 46.1511 50.8346 46.5932 50.8346 47.1378C50.8346 47.5578 51.1036 47.9169 51.4823 48.0592Z" fill="black"/>
<path fill-rule="evenodd" clip-rule="evenodd" d="M83.7387 73.5555C83.7387 73.5555 104.69 51.4478 117.509 52.3333C119.563 52.4751 125.415 53.2712 131.069 57.3954C135.148 60.3705 138.635 63.7979 142.018 67.2932C143.673 69.0042 144.411 71.4035 144.003 73.7486C143.595 76.0943 142.09 78.1031 139.953 79.1542C136.876 80.6705 132.916 82.119 128.055 82.9341C128.055 82.9341 128.92 84.4972 129.457 85.4676C129.737 85.9751 129.734 86.5911 129.447 87.0948C129.004 87.8496 128.173 88.9988 126.73 90.1396C126.73 90.1396 126.648 90.6765 126.57 91.1877C126.533 91.4282 126.401 91.6439 126.205 91.7871C126.008 91.9312 125.763 91.99 125.522 91.9515C125.155 91.8935 124.875 91.5918 124.844 91.2216C124.826 90.9969 124.836 90.7594 124.875 90.5694C124.875 90.5694 125.807 84.1511 120.74 78.839C120.74 78.839 119.345 76.6531 121.478 75.2498L129.448 70.4512L124.468 66.2631C124.468 66.2631 123.401 71.5068 117.334 72.656C114.722 73.1514 109.792 73.306 106.749 68.6702C106.749 68.6702 90.9193 81.2489 86.7578 86.2224C86.7578 86.2224 86.1244 86.8287 85.5725 86.4358C85.2633 86.2156 84.8546 85.7587 85.3086 85.0665C85.3086 85.0665 84.5636 85.7391 83.9076 85.2904C83.4702 84.9911 83.1332 84.4045 83.5833 83.7153C83.5833 83.7153 82.8218 84.412 82.1341 83.9196C81.6711 83.5871 81.5641 83.0012 81.7918 82.3332C81.7918 82.3332 80.9865 83.1324 80.3011 82.6687C79.8215 82.3445 79.59 81.6704 79.9173 81.1802L82.959 76.8137L83.7387 73.5555Z" fill="#C4B5FD"/>
<path fill-rule="evenodd" clip-rule="evenodd" d="M126.505 91.4131C126.503 91.3875 126.505 91.3619 126.509 91.3355C127.262 87.5065 126.585 83.4567 126.585 83.4567C126.558 83.2923 126.668 83.1369 126.833 83.109C126.996 83.0819 127.153 83.1927 127.18 83.3571C127.18 83.3571 127.355 84.4113 127.431 85.9608L128.463 86.2488C128.623 86.2941 128.717 86.4599 128.672 86.6206C128.627 86.7812 128.461 86.8747 128.3 86.8294L127.456 86.5934C127.481 87.502 127.465 88.5358 127.365 89.6042C127.168 89.7822 126.956 89.9609 126.73 90.1396C126.73 90.1396 126.648 90.6765 126.57 91.1877C126.558 91.2661 126.536 91.3415 126.505 91.4131Z" fill="#7C3AED"/>
<path fill-rule="evenodd" clip-rule="evenodd" d="M92.3919 65.436C99.6396 59.229 109.978 51.813 117.509 52.3333C119.563 52.4751 125.415 53.2712 131.069 57.3954C135.148 60.3705 138.635 63.7979 142.018 67.2932C143.673 69.0042 144.411 71.4036 144.003 73.7486C143.595 76.0943 142.09 78.1031 139.953 79.1542C138.435 79.9022 136.703 80.6336 134.753 81.2805L127.625 71.5491L129.448 70.4512L124.468 66.2631C124.468 66.2631 123.401 71.5068 117.334 72.656C114.722 73.1514 109.792 73.306 106.749 68.6702C106.749 68.6702 103.642 71.1381 99.8191 74.3216L92.3919 65.436Z" fill="#8B5CF6"/>
<path fill-rule="evenodd" clip-rule="evenodd" d="M84.3185 85.4412L85.1992 84.2137C85.2957 84.078 85.485 84.0471 85.62 84.1443C85.7549 84.2416 85.7859 84.4301 85.6894 84.5651C85.6894 84.5651 85.2739 85.1185 85.3086 85.0665C85.3086 85.0665 84.8396 85.4903 84.3185 85.4412ZM82.5707 84.09L83.4785 82.8255C83.5751 82.6906 83.7643 82.6596 83.8993 82.7562C84.0343 82.8534 84.0652 83.0419 83.9687 83.1777L83.5811 83.7175C83.5456 83.7492 83.088 84.1473 82.5707 84.09ZM80.7045 82.8112L81.7051 81.4163C81.8023 81.2813 81.9909 81.2496 82.1258 81.3469C82.2615 81.4442 82.2925 81.6327 82.1952 81.7676L81.7858 82.3392C81.7254 82.3965 81.2315 82.8512 80.7045 82.8112Z" fill="#7C3AED"/>
<path d="M116.52 51.0088C119.01 51.0088 121.028 48.9904 121.028 46.5006C121.028 44.0108 119.01 41.9924 116.52 41.9924C114.03 41.9924 112.012 44.0108 112.012 46.5006C112.012 48.9904 114.03 51.0088 116.52 51.0088Z" fill="#C4B5FD"/>
<path fill-rule="evenodd" clip-rule="evenodd" d="M114.282 42.5872C114.941 42.2089 115.706 41.9924 116.52 41.9924C119.008 41.9924 121.028 44.0125 121.028 46.5006C121.028 48.1704 120.118 49.6294 118.768 50.4084L117.331 47.9032C117.626 47.994 117.967 47.9637 118.269 47.7922C118.823 47.4767 119.034 46.8019 118.741 46.2863C118.447 45.7708 117.759 45.6083 117.205 45.9239C116.902 46.0965 116.7 46.3768 116.629 46.6798L114.282 42.5872Z" fill="black"/>
<path fill-rule="evenodd" clip-rule="evenodd" d="M129.359 70.3766L129.375 70.3668C129.375 70.3668 130.948 71.7036 131.872 72.4893C131.926 72.5353 131.939 72.613 131.903 72.6741C131.867 72.7352 131.791 72.7615 131.726 72.7352L128.033 71.3025L129.448 70.4512L129.359 70.3766ZM106.31 69.0201L109.865 65.9988C109.958 65.9195 110.093 65.9148 110.192 65.9872C110.29 66.0598 110.326 66.1905 110.278 66.303L108.435 70.6337C107.832 70.1013 107.264 69.4544 106.749 68.6702C106.749 68.6702 106.593 68.7931 106.31 69.0201ZM124.477 66.2704C124.764 65.0972 125.06 63.1822 124.948 60.8081C124.942 60.706 125.01 60.6146 125.109 60.589C125.208 60.5634 125.311 60.6108 125.356 60.7024C125.999 62.0204 127.006 64.7226 126.538 68.0044L124.477 66.2704Z" fill="#5B21B6"/>
<path fill-rule="evenodd" clip-rule="evenodd" d="M92.072 130.529C92.072 130.529 93.16 128.191 95.3859 127.778C96.7334 113.29 99.3581 99.156 103.831 84.6478C105.601 78.915 111.379 75.4125 117.281 76.4938C118.984 76.8052 120.59 77.4876 121.852 78.7453C122.411 79.304 126.43 84.2316 124.913 91.9295C124.432 94.368 123.45 97.2371 122.768 99.1387C122.768 99.1387 134.659 113.358 136.238 115.248C136.342 115.371 136.355 115.546 136.273 115.685C135.137 117.587 127.369 130.605 127.369 130.605C127.369 130.605 126.005 129.29 126.515 126.57L116.581 115.675C116.581 115.675 111.533 127.86 110.623 130.056C110.539 130.26 110.341 130.394 110.12 130.395C107.534 130.415 92.072 130.529 92.072 130.529Z" fill="url(#paint0_linear_51_1795)"/>
<path fill-rule="evenodd" clip-rule="evenodd" d="M95.506 126.522L111.871 127.044L111.625 127.64L95.448 127.124C95.4668 126.923 95.4864 126.722 95.506 126.522ZM133.955 112.517L126.23 126.257L125.802 125.788L133.541 112.021L133.955 112.517ZM122.933 98.6759C122.876 98.835 122.821 98.9896 122.768 99.1389L123.317 99.7949L117.113 116.258L116.581 115.675L115.974 117.141L122.933 98.6759ZM119.771 77.2835C119.998 77.3928 120.22 77.5127 120.436 77.6431C120.518 77.996 120.69 78.3949 121.018 78.8058C121.542 79.4603 125.517 82.6378 124.832 90.4608C124.792 90.9268 124.85 91.2933 124.979 91.5723C124.958 91.6899 124.936 91.8098 124.912 91.9297C124.884 92.0775 124.853 92.2267 124.82 92.3775C124.776 92.3338 124.733 92.2886 124.692 92.2388C124.366 91.8482 124.157 91.2578 124.231 90.408C124.891 82.8708 121.052 79.8132 120.548 79.1828C119.993 78.4891 119.805 77.8203 119.771 77.2835Z" fill="#6D28D9"/>
<path fill-rule="evenodd" clip-rule="evenodd" d="M62.445 97.6618C59.0164 111.874 50.1384 127.993 50.1384 127.993C51.7868 127.833 53.6172 130.624 53.6172 130.624C53.6172 130.624 36.9722 130.624 32.1718 130.624C31.8883 130.624 31.6238 130.482 31.4678 130.245C31.3118 130.008 31.2852 129.709 31.397 129.448C37.3572 115.409 41.8492 97.6165 42.4254 94.9043C46.3861 76.264 53.2474 76.0861 56.2093 76.6659C57.0507 76.8303 57.8115 77.0716 58.4931 77.3822C65.5862 78.9099 76.5196 83.8473 82.5096 88.3382C84.3894 89.7581 85.2867 92.1317 84.8147 94.4398C83.79 99.4842 81.6719 104.135 79.2047 109.272C81.6425 110.548 82.2623 112.125 82.2623 112.125C82.2623 112.125 69.6708 111.145 66.6803 110.912C66.522 110.899 66.3765 110.819 66.2822 110.691C66.188 110.563 66.154 110.4 66.1895 110.245C66.712 107.943 68.5172 99.994 68.5172 99.994C66.3493 99.4134 64.2969 98.6759 62.445 97.6618Z" fill="url(#paint1_linear_51_1795)"/>
<path fill-rule="evenodd" clip-rule="evenodd" d="M33.9051 123.12L52.126 124.173C51.9976 124.429 51.8739 124.673 51.7554 124.907L33.6283 123.86C33.7209 123.614 33.813 123.367 33.9051 123.12ZM80.2083 107.162L66.9035 107.099L67.0747 106.346L80.5589 106.41C80.4436 106.66 80.3267 106.911 80.2083 107.162ZM55.7778 76.5928C55.9291 76.6139 56.0733 76.6388 56.2093 76.6659C57.0507 76.8303 57.8115 77.0716 58.4931 77.3822C58.7842 77.4448 59.0813 77.5134 59.3844 77.5873C60.0984 78.146 60.8434 78.8797 61.5288 79.8403C63.7298 82.9266 65.3344 88.397 63.0949 98.0018C62.8755 97.8917 62.6591 97.7786 62.445 97.6618C62.2934 98.2899 62.1313 98.9217 61.9601 99.5544C61.9526 99.5046 61.9549 99.4526 61.9684 99.4013C64.6867 89.142 63.1605 83.4265 60.9151 80.2784C58.7299 77.2141 55.8916 76.635 55.8916 76.635C55.8505 76.6267 55.8123 76.6124 55.7778 76.5928Z" fill="#1D4ED8"/>
<path fill-rule="evenodd" clip-rule="evenodd" d="M67.6817 99.7602V99.7564C67.6817 99.7564 70.0772 100.457 72.4585 100.759C72.5851 100.771 72.6854 100.873 72.6945 101.001C72.7043 101.128 72.6213 101.244 72.4969 101.275C71.0047 101.655 68.8338 102.207 67.9644 102.428L68.5172 99.994C68.2367 99.9186 67.9584 99.8409 67.6817 99.7602Z" fill="#8ABBB8"/>
<path fill-rule="evenodd" clip-rule="evenodd" d="M43.6041 80.145C43.6041 80.145 43.8724 80.8289 44.3282 81.2602C44.5861 81.5045 45.0946 81.6138 45.5498 81.3092C46.4114 80.7324 47.0499 79.2884 46.9058 77.7268C46.8685 77.3226 45.7598 74.0426 42.8919 72.2518L45.5498 70.7279C45.5498 70.7279 51.5869 77.5971 60.0857 71.6908C60.0857 71.6908 67.88 77.7283 79.4868 82.0029L83.1197 76.834C83.1197 76.834 87.6039 75.982 88.4265 74.6866C88.5509 74.4913 88.6957 73.9725 87.7449 73.8979C87.3151 73.8639 84.0155 73.4213 78.177 70.2416C76.5755 69.3684 71.2996 66.6903 64.266 59.7061C62.7866 58.2368 53.393 48.7789 38.914 59.7061C36.3732 61.6238 26.3582 69.3865 21.7435 76.7119C19.8298 79.7582 20.1863 83.707 22.6146 86.3612C22.6143 86.3612 22.6143 86.3612 22.6143 86.3612C24.8357 88.7891 28.4626 89.3109 31.2779 87.6068C36.3553 84.5334 43.6041 80.145 43.6041 80.145Z" fill="#DBEAFE"/>
<path fill-rule="evenodd" clip-rule="evenodd" d="M43.5275 80.1917L44.6883 79.4166C44.8647 79.3065 45.0975 79.36 45.208 79.5365C45.3184 79.7129 45.2649 79.9452 45.0885 80.056L43.9369 80.7769C43.7234 80.4473 43.6048 80.145 43.6048 80.145L43.5275 80.1917ZM83.091 76.8748L83.0661 76.911C83.0359 76.9162 83.0201 76.92 83.0201 76.92L82.4523 77.7276C81.8121 77.8158 81.279 77.8852 81.279 77.8852C81.0724 77.9116 80.8832 77.7653 80.8568 77.5587C80.8304 77.3528 80.9767 77.1636 81.1825 77.1372C81.1825 77.1372 82.1899 77.0075 83.091 76.8748Z" fill="#8ABBB8"/>
<path fill-rule="evenodd" clip-rule="evenodd" d="M40.9723 81.7262L31.2785 87.6023C28.4637 89.3087 24.8355 88.7884 22.6136 86.3597C22.6136 86.3597 22.6135 86.3597 22.6139 86.3597C20.1866 83.7062 19.83 79.7589 21.7428 76.7142C26.3568 69.3888 36.3736 61.6239 38.9148 59.7061C53.3937 48.7789 62.7873 58.2368 64.2667 59.7061C71.3003 66.6903 76.5762 69.3684 78.1777 70.2416C78.9996 70.6887 79.7702 71.0823 80.4903 71.4277L74.7831 80.0967C65.823 76.1351 60.0864 71.6908 60.0864 71.6908C51.5876 77.5971 45.5505 70.7279 45.5505 70.7279L42.8862 72.2669C39.6877 69.9407 35.6087 72.6967 35.6087 72.6967L40.9723 81.7262Z" fill="#3B82F6"/>
<path fill-rule="evenodd" clip-rule="evenodd" d="M35.673 72.6552C35.6307 72.6824 35.6086 72.6967 35.6086 72.6967L35.9915 73.3414C32.7541 75.1767 29.508 77.1515 26.2388 79.1783C26.062 79.2876 25.8294 79.2334 25.7197 79.0562C25.6101 78.8797 25.6647 78.6467 25.8415 78.5374C29.1371 76.494 32.4095 74.5041 35.673 72.6552ZM59.913 71.81C60.5071 71.2407 62.5882 68.9831 63.2578 64.7463C63.2721 64.6551 63.349 64.5869 63.441 64.5835C63.5338 64.58 63.6152 64.6424 63.6363 64.7322C63.8241 65.8174 63.9832 67.6764 63.4999 69.943C63.2767 70.9866 62.9177 72.1176 62.3628 73.2984C60.8894 72.3129 60.0864 71.6908 60.0864 71.6908C60.0291 71.7308 59.971 71.7708 59.913 71.81ZM43.5189 71.9012C42.8404 70.3147 42.9152 68.8813 43.0717 68.0202C43.0964 67.8875 43.2024 67.7842 43.3362 67.7631C43.4701 67.7412 43.6028 67.8068 43.6676 67.926C44.4197 69.3458 45.1404 70.268 45.5441 70.7317L43.5189 71.9012Z" fill="#1E40AF"/>
<path fill-rule="evenodd" clip-rule="evenodd" d="M90.5935 79.0396C90.2761 78.6573 90.2369 78.097 90.5332 77.6688C90.8891 77.153 91.5971 77.0233 92.1129 77.38L93.8592 78.5864C94.3742 78.9423 94.5039 79.6503 94.1472 80.1661C93.823 80.6359 93.2062 80.7844 92.7093 80.5378C92.9853 80.9111 93.0079 81.4329 92.7297 81.8355C92.4115 82.297 91.8075 82.444 91.3196 82.2035C91.5919 82.5699 91.6152 83.0842 91.3408 83.4808C91.0286 83.9332 90.4367 84.078 89.9571 83.8435C90.2263 84.2047 90.2489 84.7114 89.9798 85.1012C89.6412 85.5913 88.9686 85.7142 88.4785 85.3757L87.0798 84.409C86.5904 84.0704 86.4667 83.3979 86.8053 82.9085C87.0956 82.4893 87.6302 82.3384 88.0856 82.5164C87.778 82.1477 87.7403 81.6048 88.0261 81.1908C88.3209 80.764 88.8653 80.611 89.3283 80.7927C89.0161 80.4172 88.9776 79.8652 89.2687 79.4445C89.5688 79.0102 90.1223 78.8548 90.5935 79.0396Z" fill="#ABD1CE"/>
<path fill-rule="evenodd" clip-rule="evenodd" d="M87.8489 81.6191L90.9245 83.8412C90.6259 83.9882 90.2678 83.9958 89.9571 83.8435C89.9775 83.8706 88.069 82.5104 88.0856 82.5164C87.8768 82.266 87.7923 81.935 87.8489 81.6191ZM89.0825 79.9165C89.0885 79.9203 89.0938 79.924 89.099 79.9278L92.2411 82.1974C92.2509 82.2042 92.2599 82.2118 92.2682 82.2201C91.9719 82.3528 91.6228 82.3528 91.3196 82.2035C91.3513 82.2464 89.2906 80.7776 89.3283 80.7927C89.1247 80.5476 89.0372 80.2272 89.0825 79.9165ZM90.347 78.1302C90.3605 78.137 90.3733 78.1453 90.3862 78.1543L93.5282 80.424C93.5817 80.4624 93.6187 80.5152 93.6375 80.5733C93.3435 80.6916 93.0049 80.6849 92.7093 80.5378C92.7274 80.5627 90.5845 79.0358 90.5935 79.0396C90.3824 78.7847 90.2942 78.4514 90.347 78.1302Z" fill="#8ABBB8"/>
<path fill-rule="evenodd" clip-rule="evenodd" d="M124.643 116.191C124.643 115.712 124.255 115.323 123.776 115.323C120.116 115.323 105.956 115.323 102.297 115.323C101.818 115.323 101.43 115.712 101.43 116.191C101.43 119.501 101.43 131.151 101.43 131.151H124.643V116.191Z" fill="black"/>
<path fill-rule="evenodd" clip-rule="evenodd" d="M108.721 115.323V113.235C108.721 112.841 109.041 112.522 109.434 112.522H116.638C117.032 112.522 117.351 112.841 117.351 113.235V115.323H115.926V113.947H110.147V115.323H108.721Z" fill="black"/>
<path fill-rule="evenodd" clip-rule="evenodd" d="M124.43 115.622C124.562 115.774 124.643 115.973 124.643 116.191V116.393L113.997 123.826C113.42 124.229 112.653 124.23 112.075 123.828L101.43 116.417V116.191C101.43 115.981 101.504 115.788 101.629 115.638L112.506 123.209C112.825 123.431 113.248 123.43 113.565 123.208L124.43 115.622Z" fill="white"/>
<defs>
<linearGradient id="paint0_linear_51_1795" x1="114.241" y1="103.438" x2="86.9272" y2="39.6991" gradientUnits="userSpaceOnUse">
<stop stop-color="#A78BFA"/>
<stop offset="1" stop-color="#DDD6FE"/>
</linearGradient>
<linearGradient id="paint1_linear_51_1795" x1="62.5392" y1="115.756" x2="103.118" y2="84.4468" gradientUnits="userSpaceOnUse">
<stop stop-color="#93C5FD"/>
<stop offset="0.52" stop-color="#DBEAFE"/>
<stop offset="1" stop-color="white"/>
</linearGradient>
</defs>
</svg>
