<svg width="357" height="272" viewBox="0 0 357 272" fill="none" xmlns="http://www.w3.org/2000/svg">
<g clip-path="url(#clip0_8_428)">
<path d="M356.718 10.5145H229.964V181.393H356.718V10.5145Z" fill="#FCE7F3"/>
<path d="M321.095 67.442C334.39 67.442 345.167 56.6758 345.167 43.3949C345.167 30.114 334.39 19.3478 321.095 19.3478C307.8 19.3478 297.022 30.114 297.022 43.3949C297.022 56.6758 307.8 67.442 321.095 67.442Z" fill="white"/>
<path d="M321.189 48.077C325.819 48.077 329.572 44.3276 329.572 39.7025C329.572 35.0773 325.819 31.3279 321.189 31.3279C316.559 31.3279 312.805 35.0773 312.805 39.7025C312.805 44.3276 316.559 48.077 321.189 48.077Z" fill="#A78BFA"/>
<path fill-rule="evenodd" clip-rule="evenodd" d="M300.502 55.8473C306.939 51.8147 321.281 46.0687 340.628 57.444C336.255 63.4979 329.134 67.442 321.095 67.442C312.37 67.442 304.722 62.7951 300.502 55.8473Z" fill="#A78BFA"/>
<path fill-rule="evenodd" clip-rule="evenodd" d="M321.635 31.3397C325.803 31.5587 329.167 34.8243 329.539 38.946C322.401 37.6735 321.653 33.0918 321.635 31.3397ZM312.845 38.8852C313.256 34.6458 316.839 31.328 321.188 31.328C321.317 31.328 321.444 31.3308 321.571 31.3365C320.616 36.5005 315.47 38.2982 312.845 38.8852Z" fill="black"/>
<path fill-rule="evenodd" clip-rule="evenodd" d="M283.077 51.0303H240.07V57.2359H283.077V51.0303ZM279.481 37.9554H240.07V44.161H279.481V37.9554ZM287.989 24.9329H240.07V31.1387H287.989V24.9329Z" fill="#FBCFE8"/>
<path fill-rule="evenodd" clip-rule="evenodd" d="M320.851 114.888H257.192V120.04H320.851V114.888ZM309.465 104.584H257.192V109.737H309.465V104.584ZM320.851 93.8638H257.192V99.0164H320.851V93.8638Z" fill="#FBCFE8"/>
<path d="M320.851 126.616H257.192V131.769H320.851V126.616Z" fill="#FBCFE8"/>
<path fill-rule="evenodd" clip-rule="evenodd" d="M323.588 169.182H259.929V174.334H323.588V169.182ZM309.437 158.461H259.929V163.613H309.437V158.461Z" fill="#FBCFE8"/>
<path d="M339.468 74.4178H239.895V83.6879H339.468V74.4178Z" fill="#FBCFE8"/>
<path d="M341.655 143.321H242.082V152.591H341.655V143.321Z" fill="#FBCFE8"/>
<path d="M240.028 5.24622H113.275V176.125H240.028V5.24622Z" fill="#B5D6D4"/>
<path d="M204.405 62.1737C217.7 62.1737 228.478 51.4074 228.478 38.1266C228.478 24.8457 217.7 14.0795 204.405 14.0795C191.11 14.0795 180.333 24.8457 180.333 38.1266C180.333 51.4074 191.11 62.1737 204.405 62.1737Z" fill="white"/>
<path fill-rule="evenodd" clip-rule="evenodd" d="M184.68 51.9083C190.61 47.6573 207.024 38.4735 224.29 51.6762C219.955 58.0116 212.662 62.1736 204.405 62.1736C196.25 62.1736 189.037 58.1141 184.68 51.9083Z" fill="#93C5FD"/>
<path d="M205.12 40.2355C209.821 40.2355 213.631 36.4289 213.631 31.7332C213.631 27.0375 209.821 23.2308 205.12 23.2308C200.419 23.2308 196.609 27.0375 196.609 31.7332C196.609 36.4289 200.419 40.2355 205.12 40.2355Z" fill="#93C5FD"/>
<path d="M219.722 39.4485C223.141 39.4485 225.913 36.6795 225.913 33.2637C225.913 29.848 223.141 27.079 219.722 27.079C216.303 27.079 213.531 29.848 213.531 33.2637C213.531 36.6795 216.303 39.4485 219.722 39.4485Z" fill="black"/>
<path fill-rule="evenodd" clip-rule="evenodd" d="M196.613 32.0401C196.611 31.9385 196.609 31.8361 196.609 31.7334C196.609 27.0406 200.422 23.2308 205.12 23.2308C209.817 23.2308 213.63 27.0406 213.63 31.7334C213.63 32.0115 213.618 32.2867 213.59 32.5581C207.22 31.7098 205.464 26.109 205.464 26.109C203.389 31.0771 199.254 32.0018 196.613 32.0401Z" fill="black"/>
<path fill-rule="evenodd" clip-rule="evenodd" d="M164.319 45.762H123.38V51.9676H164.319V45.762ZM171.3 32.6871H123.38V38.8927H171.3V32.6871ZM161.255 19.6646H123.38V25.8704H161.255V19.6646Z" fill="#95C0BE"/>
<path fill-rule="evenodd" clip-rule="evenodd" d="M204.558 107.439H140.899V112.592H204.558V107.439ZM204.558 97.136H140.899V102.289H204.558V97.136ZM204.558 86.4153H140.899V91.5679H204.558V86.4153Z" fill="#95C0BE"/>
<path fill-rule="evenodd" clip-rule="evenodd" d="M204.558 158.508H140.899V163.66H204.558V158.508ZM204.558 148.206H140.899V153.358H204.558V148.206ZM204.558 137.485H140.899V142.637H204.558V137.485Z" fill="#95C0BE"/>
<path d="M222.778 69.1495H123.206V78.4196H222.778V69.1495Z" fill="#95C0BE"/>
<path d="M222.778 121.256H123.206V130.526H222.778V121.256Z" fill="#95C0BE"/>
<path d="M125.951 -0.203125H-0.802521V170.676H125.951V-0.203125Z" fill="#DDD6FE"/>
<path d="M90.3283 56.7244C103.623 56.7244 114.401 45.9581 114.401 32.6772C114.401 19.3964 103.623 8.63013 90.3283 8.63013C77.0334 8.63013 66.2557 19.3964 66.2557 32.6772C66.2557 45.9581 77.0334 56.7244 90.3283 56.7244Z" fill="white"/>
<path fill-rule="evenodd" clip-rule="evenodd" d="M69.4053 44.5701C73.8202 39.0201 81.5541 35.3369 90.3492 35.3369C99.1281 35.3369 106.849 39.0062 111.268 44.5394C107.127 51.8133 99.2977 56.7243 90.3282 56.7243C81.3722 56.7243 73.5517 51.8278 69.4053 44.5701Z" fill="#F472B6"/>
<path fill-rule="evenodd" clip-rule="evenodd" d="M87.2126 35.495C88.24 35.3907 89.287 35.3369 90.3492 35.3369C91.8145 35.3369 93.2503 35.4391 94.6472 35.6355C94.4089 37.0238 93.4751 38.008 92.4051 38.451L95.1717 56.2363C93.6062 56.5563 91.9866 56.7243 90.3282 56.7243C88.8943 56.7243 87.4895 56.5987 86.1233 56.3579L89.7461 38.4644C87.9736 37.8453 87.3961 36.2983 87.2126 35.495Z" fill="black"/>
<path d="M90.2222 32.5262C94.8578 32.5262 98.6158 28.7723 98.6158 24.1415C98.6158 19.5108 94.8578 15.7568 90.2222 15.7568C85.5866 15.7568 81.8286 19.5108 81.8286 24.1415C81.8286 28.7723 85.5866 32.5262 90.2222 32.5262Z" fill="#F472B6"/>
<path fill-rule="evenodd" clip-rule="evenodd" d="M81.8287 24.1149C81.843 19.4997 85.5985 15.7568 90.2223 15.7568C94.8547 15.7568 98.6159 19.5138 98.6159 24.1415C98.6159 24.5044 98.5927 24.8619 98.548 25.212C92.9677 24.6069 90.6144 18.7306 90.6144 18.7306C88.6022 23.006 84.1813 23.9334 81.8287 24.1149Z" fill="black"/>
<path fill-rule="evenodd" clip-rule="evenodd" d="M39.9587 40.3126H9.30315V46.5183H39.9587V40.3126ZM57.2227 27.2377H9.30315V33.4434H57.2227V27.2377ZM57.2227 14.2152H9.30315V20.4211H57.2227V14.2152Z" fill="#C4B5FD"/>
<path fill-rule="evenodd" clip-rule="evenodd" d="M90.4809 101.99H26.8219V107.142H90.4809V101.99ZM90.4809 91.6865H26.8219V96.8391H90.4809V91.6865ZM90.4809 80.9658H26.8219V86.1185H90.4809V80.9658Z" fill="#C4B5FD"/>
<path fill-rule="evenodd" clip-rule="evenodd" d="M90.4809 153.058H26.8219V158.21H90.4809V153.058ZM90.4809 142.756H26.8219V147.908H90.4809V142.756ZM90.4809 132.036H26.8219V137.188H90.4809V132.036Z" fill="#C4B5FD"/>
<path d="M108.701 63.7002H9.12845V72.9703H108.701V63.7002Z" fill="#C4B5FD"/>
<path d="M108.701 115.807H9.12845V125.077H108.701V115.807Z" fill="#C4B5FD"/>
<path d="M139.653 79.0644C151.549 77.2904 158.959 60.9377 156.203 42.5396C153.447 24.1415 141.568 10.665 129.672 12.439C117.776 14.213 110.366 30.5657 113.122 48.9638C115.878 67.3619 127.757 80.8384 139.653 79.0644Z" fill="white"/>
<path fill-rule="evenodd" clip-rule="evenodd" d="M115.965 59.779C120.945 54.4719 128.023 50.6542 136.316 49.4184C143.547 48.3408 150.628 49.3867 156.738 52.041C156.19 66.2558 149.434 77.5969 139.648 79.0554C130.251 80.4562 120.851 72.3252 115.965 59.779Z" fill="#F472B6"/>
<path fill-rule="evenodd" clip-rule="evenodd" d="M136.491 79.1764L136.379 54.1185C133.84 53.5641 132.639 51.4118 132.172 50.2709C133.515 49.9134 134.897 49.6261 136.318 49.4144C138.273 49.1227 140.22 48.9865 142.139 48.996C142.207 51.0784 141.233 52.7067 139.926 53.5692L147.325 75.4598C145.073 77.3782 142.489 78.6344 139.649 79.0577C138.595 79.2152 137.539 79.2522 136.491 79.1764Z" fill="black"/>
<path d="M135.375 45.3224C141.568 44.3992 145.547 38.1469 144.263 31.3574C142.978 24.5679 136.916 19.8123 130.723 20.7355C124.53 21.6587 120.551 27.9111 121.835 34.7006C123.12 41.49 129.182 46.2456 135.375 45.3224Z" fill="#F472B6"/>
<path fill-rule="evenodd" clip-rule="evenodd" d="M121.827 34.6642C120.567 27.8941 124.547 21.6577 130.725 20.7363C136.915 19.8132 142.983 24.5726 144.266 31.3581C144.367 31.8901 144.435 32.4189 144.473 32.9413C136.848 33.166 132.074 25.0186 132.074 25.0186C130.571 31.6884 124.921 33.9292 121.827 34.6642Z" fill="black"/>
<path fill-rule="evenodd" clip-rule="evenodd" d="M138.42 80.1224L143.648 116.187C143.829 117.442 144.998 118.314 146.253 118.132C147.511 117.95 148.383 116.783 148.2 115.528L142.975 79.4636C142.792 78.2082 141.625 77.3365 140.367 77.5182C139.112 77.7002 138.239 78.8669 138.42 80.1224Z" fill="#1D4ED8"/>
<path fill-rule="evenodd" clip-rule="evenodd" d="M139.518 87.6919L138.42 80.1223C138.239 78.867 139.111 77.7001 140.368 77.5183C141.625 77.3366 142.793 78.2081 142.974 79.4637L143.802 85.1776C142.203 86.5754 140.769 87.3358 139.518 87.6919Z" fill="black"/>
<path fill-rule="evenodd" clip-rule="evenodd" d="M139.254 77.087C135.106 77.6524 131.012 76.0113 127.418 72.9065C121.568 67.8505 117.072 58.9942 115.642 48.5407C114.213 38.0872 116.166 28.3523 120.445 21.9158C123.074 17.9629 126.576 15.2866 130.725 14.7213C131.983 14.5498 132.866 13.3901 132.694 12.1332C132.522 10.8763 131.36 9.99508 130.102 10.1666C124.704 10.9023 120.032 14.2272 116.613 19.3712C111.82 26.5798 109.483 37.4548 111.084 49.1619C112.685 60.8692 117.856 70.7211 124.41 76.3832C129.085 80.4243 134.479 82.3774 139.877 81.6417C141.135 81.4702 142.018 80.3103 141.846 79.0534C141.674 77.7966 140.512 76.9155 139.254 77.087Z" fill="#1D4ED8"/>
<path fill-rule="evenodd" clip-rule="evenodd" d="M130.731 14.7183C134.882 14.1526 138.975 15.7937 142.569 18.8985C148.42 23.9545 152.915 32.8106 154.345 43.2641C155.775 53.7176 153.822 63.4527 149.543 69.8892C146.914 73.8421 143.411 76.5184 139.26 77.0841C138.002 77.2555 137.121 78.4149 137.293 79.6718C137.465 80.9287 138.625 81.8102 139.883 81.6387C145.284 80.9027 149.954 77.5781 153.374 72.4338C158.167 65.2254 160.503 54.3504 158.902 42.6431C157.301 30.936 152.13 21.0841 145.577 15.4218C140.9 11.381 135.509 9.42762 130.108 10.1636C128.85 10.3351 127.969 11.4947 128.141 12.7516C128.313 14.0085 129.473 14.8898 130.731 14.7183Z" fill="#1D4ED8"/>
<path fill-rule="evenodd" clip-rule="evenodd" d="M165.53 177.19C165.53 177.19 128.621 247.326 120.596 264.824C120.596 264.824 111.621 265.766 107.548 271.498H169.412L184.347 245.511C184.347 245.511 195.418 260.086 205.402 264.824C205.402 264.824 199.624 268.226 198.898 271.498H255.737L215.166 208.255C215.166 208.255 244.249 153.776 215.166 137.961C206.972 133.506 186.839 134.367 165.53 177.19Z" fill="url(#paint0_linear_8_428)"/>
<path fill-rule="evenodd" clip-rule="evenodd" d="M180.432 153.211L169.762 177.45C161.824 195.483 163.86 216.345 175.134 232.509L175.191 232.59L219.267 214.647L220.137 216.006L176.123 233.926C180.969 240.857 185.455 247.049 187.788 249.677C187.83 249.723 187.866 249.773 187.898 249.824C185.705 247.299 184.347 245.511 184.347 245.511L183.322 247.293C180.667 243.809 177.15 238.877 173.503 233.642C170.242 228.966 167.728 223.909 165.977 218.642L144.755 216.986L145.11 216.301L145.549 215.456L165.46 217.011C161.516 203.874 162.261 189.563 167.945 176.652L174.987 160.652C176.826 157.895 178.643 155.423 180.432 153.211ZM215.816 209.268L215.808 209.286C215.808 209.286 212.337 203.795 210.307 200.585C210.102 200.264 210.13 199.849 210.372 199.556C210.615 199.262 211.018 199.159 211.371 199.298L218.185 201.958C216.437 205.872 215.166 208.255 215.166 208.255L215.816 209.268Z" fill="#60A5FA"/>
<path fill-rule="evenodd" clip-rule="evenodd" d="M269.796 38.506C272.099 36.4982 275.392 32.8118 276.046 30.8912C276.997 28.0986 275.003 27.7179 273.932 28.5527C269.478 32.0276 263.383 34.7137 263.383 34.7137C251.922 39.6969 223.638 70.3748 223.638 70.3748C207.016 86.5967 180.734 87.7295 173.444 87.7162C170.947 87.7049 168.479 88.2532 166.223 89.3209C158.484 92.9989 153.801 100.713 153.801 100.713C153.801 100.713 150.848 97.5525 148.262 96.116C147.184 95.5208 145.843 95.7079 144.969 96.575C144.969 96.5748 144.969 96.575 144.969 96.575C142.477 96.1114 140.012 97.5029 139.125 99.8743C138.926 100.409 138.761 100.899 138.68 101.274C138.68 101.274 136.364 102.201 136.245 104.705C136.245 104.705 133.516 105.838 133.505 108.5C133.505 108.5 129.451 112.668 133.505 116.739C133.505 116.739 136.267 118.36 136.936 114.809C136.936 114.809 137.929 147.043 138.416 162.841C138.585 168.266 141.045 173.367 145.192 176.876C150.3 181.201 157.644 181.661 163.254 178.009C163.629 177.765 163.991 177.531 164.334 177.307C166.825 175.686 168.964 173.579 170.62 171.111C173.362 167.021 176.874 160.289 177.207 152.243V135.519C177.207 135.519 190.171 140.691 199.34 120.954C199.34 120.954 205.481 121.987 213.81 119.975C218.793 118.771 224.56 116.477 230.266 112.221C234.253 109.253 237.691 105.61 240.42 101.455C245.754 93.3414 259.505 72.4005 263.383 66.3762C263.383 66.3762 268.11 59.4556 272.167 55.968C272.167 55.968 276.129 59.7813 279.382 51.7436C279.382 51.7436 280.945 47.9527 276.653 46.214C276.653 46.214 276.969 41.9785 272.898 41.9214C273.303 39.0282 271.879 38.3727 269.796 38.506Z" fill="#FFCCC5"/>
<path fill-rule="evenodd" clip-rule="evenodd" d="M237.484 56.1089C241.605 58.5478 249.545 64.0851 258.089 74.5161C252.353 83.2915 244.235 95.653 240.42 101.455C237.691 105.61 234.253 109.253 230.266 112.221C224.56 116.478 218.793 118.771 213.81 119.975C205.481 121.987 199.341 120.954 199.341 120.954C190.171 140.691 177.207 135.519 177.207 135.519V152.243C176.874 160.289 173.362 167.021 170.62 171.111C168.964 173.579 166.825 175.686 164.334 177.307C163.991 177.531 163.629 177.765 163.254 178.009C157.644 181.661 150.3 181.201 145.192 176.876C141.045 173.367 138.585 168.266 138.416 162.841L137.417 130.419H150.963C150.711 126.985 150.921 109.11 152.339 104.543C152.893 102.756 153.447 101.435 154.051 100.323C155.116 98.7113 159.524 92.5042 166.223 89.3209C168.479 88.2532 170.947 87.7049 173.444 87.7162C180.734 87.7295 207.016 86.5967 223.638 70.3749C223.638 70.3749 229.773 63.7217 237.484 56.1089Z" fill="#60A5FA"/>
<path fill-rule="evenodd" clip-rule="evenodd" d="M150.927 129.757H150.977V161.24C150.977 161.472 150.796 161.662 150.564 161.672C150.333 161.682 150.135 161.51 150.115 161.279L147.335 130.419H150.963C150.949 130.237 150.937 130.015 150.927 129.757ZM177.207 136.462L176.047 111.547C176.041 111.395 176.147 111.26 176.298 111.232C176.447 111.204 176.596 111.291 176.643 111.436C177.835 115.313 180.279 124.174 181.856 136.11C179.058 136.257 177.207 135.519 177.207 135.519V136.462ZM198.961 121.751C199.823 119.513 202.768 110.279 197.273 100.276C197.15 100.054 197.212 99.7756 197.416 99.6257C197.621 99.4755 197.905 99.5009 198.081 99.6848C200.703 102.457 204.863 108.542 207.872 120.994C202.723 121.523 199.341 120.954 199.341 120.954C199.215 121.224 199.088 121.49 198.961 121.751Z" fill="#1E40AF"/>
<path fill-rule="evenodd" clip-rule="evenodd" d="M137.131 113.946C137.006 114.702 136.748 115.539 136.748 115.539L134.378 114.271C133.989 114.071 133.836 113.592 134.037 113.202C134.239 112.813 134.718 112.66 135.107 112.861L137.131 113.946ZM134.116 106.484C134.394 106.419 134.702 106.383 135.04 106.39C136.553 106.425 138.829 107.401 141.544 111.58C141.784 111.947 141.679 112.439 141.311 112.677C140.944 112.916 140.451 112.811 140.211 112.444C137.973 108.998 136.251 108.006 135.002 107.977C134.035 107.955 133.493 108.578 133.493 108.578L133.505 108.5C133.509 107.69 133.763 107.022 134.116 106.484ZM136.783 102.924C137.087 102.885 137.433 102.879 137.82 102.926C139.244 103.101 141.391 104.058 144.113 107.426C144.389 107.767 144.336 108.267 143.994 108.542C143.653 108.817 143.152 108.764 142.878 108.423C138.467 102.968 136.245 104.705 136.245 104.705C136.279 103.987 136.493 103.398 136.783 102.924ZM139.292 99.4776C139.623 99.4357 139.999 99.4197 140.414 99.4502C141.947 99.5625 144.1 100.314 146.475 103.032C146.763 103.361 146.729 103.863 146.399 104.151C146.07 104.439 145.567 104.405 145.279 104.076C142.006 100.333 139.375 100.99 138.682 101.257C138.767 100.885 138.928 100.401 139.125 99.8744C139.174 99.7391 139.232 99.6067 139.292 99.4776ZM146.506 95.8019C147.593 96.5131 149.086 97.754 150.443 99.7875C150.685 100.152 150.586 100.645 150.222 100.888C149.857 101.131 149.362 101.032 149.12 100.667C147.213 97.8078 144.818 96.5469 144.969 96.575C145.398 96.1495 145.939 95.8878 146.506 95.8019ZM272.167 55.968C271.724 56.3489 275.958 51.6204 275.958 51.6204C276.788 50.9328 277.726 51.9079 277.128 52.6947L273.438 56.703C272.657 56.4414 272.167 55.968 272.167 55.968ZM276.5 44.703C276.705 45.5273 276.653 46.2141 276.653 46.2141C276.745 46.2508 275.096 46.5025 274.22 46.9642C272.582 47.8277 271.24 49.1541 271.24 49.1541C270.928 49.462 270.423 49.459 270.115 49.1474C269.808 48.8359 269.812 48.333 270.123 48.0251C270.123 48.0251 271.635 46.5327 273.48 45.5606C274.447 45.0503 275.503 44.7 276.5 44.703ZM272.9 40.259C272.987 40.7028 272.991 41.2463 272.9 41.9069C271.917 42.214 270.018 43.0401 267.597 45.2203C267.272 45.5138 266.769 45.4878 266.475 45.1624C266.181 44.8371 266.207 44.335 266.533 44.0418C269.524 41.3483 271.849 40.5139 272.9 40.259ZM271.754 36.6349C271.077 37.3332 270.403 37.9778 269.796 38.506C269.889 38.5001 265.919 40.0003 263.82 41.3538C263.451 41.5913 262.96 41.4854 262.722 41.1174C262.484 40.7494 262.589 40.258 262.958 40.0203C265.967 38.0811 269.13 36.791 271.754 36.6349Z" fill="#F49387"/>
<path d="M173.788 79.4847C180.124 79.4847 185.26 74.3538 185.26 68.0246C185.26 61.6954 180.124 56.5646 173.788 56.5646C167.452 56.5646 162.316 61.6954 162.316 68.0246C162.316 74.3538 167.452 79.4847 173.788 79.4847Z" fill="#FFCCC5"/>
<path fill-rule="evenodd" clip-rule="evenodd" d="M176.329 56.8474C181.441 58.0046 185.26 62.5724 185.26 68.0246C185.26 74.3494 180.119 79.4846 173.787 79.4846C173.603 79.4846 173.416 79.4801 173.233 79.4713C171.378 75.2942 174.22 73.5896 174.983 73.2195C175.452 73.6119 176.057 73.8483 176.719 73.8483C178.206 73.8483 179.414 72.6535 179.414 71.1817C179.414 69.71 178.206 68.5152 176.719 68.5152C176.121 68.5152 175.567 68.7094 175.118 69.0377C170.828 63.1977 174.387 58.6739 176.329 56.8474Z" fill="black"/>
<path fill-rule="evenodd" clip-rule="evenodd" d="M187.812 69.747C187.693 69.714 188.581 69.2433 188.809 69.0927C189.441 68.6773 190.062 68.2363 190.648 67.758C192.42 66.3078 193.538 64.5642 194.767 62.6688C198.941 56.2312 205.66 49.7229 213.758 49.4047C228.083 48.8416 236.023 65.0399 233.938 77.4695C232.357 86.8973 222.35 91.8356 213.403 90.5188C208.089 89.7361 202.959 86.6792 199.392 82.707C197.297 80.3732 195.716 77.6361 193.99 75.0319C192.437 72.685 190.801 70.0854 187.812 69.747Z" fill="black"/>
</g>
<defs>
<linearGradient id="paint0_linear_8_428" x1="174.619" y1="185.294" x2="167.878" y2="332.361" gradientUnits="userSpaceOnUse">
<stop stop-color="#BFDBFE"/>
<stop offset="1" stop-color="#93C5FD"/>
</linearGradient>
<clipPath id="clip0_8_428">
<rect width="357" height="272" fill="white"/>
</clipPath>
</defs>
</svg>
